<svg width="500" height="500" viewBox="0 0 500 500" fill="none" xmlns="http://www.w3.org/2000/svg">
<g clip-path="url(#clip0_1298_261)">
<mask id="mask0_1298_261" style="mask-type:luminance" maskUnits="userSpaceOnUse" x="-16" y="15" width="544" height="459">
<path d="M527.12 15H-16V474H527.12V15Z" fill="white"/>
</mask>
<g mask="url(#mask0_1298_261)">
<path d="M215.479 29.0117C213.174 36.8894 211.914 34.1825 220.669 31.1172C217.031 35.6244 219.524 36.6506 229.688 29.7647C227.639 40.2368 223.371 30.3662 242.768 40.2368C259.489 48.7452 270.955 66.3525 274.834 91.6364C335.353 119.255 337.681 130.146 353.198 167.489C356.193 174.694 354.253 180.561 377.917 217.202C389.477 235.098 378.706 246.38 408.189 280.611C389.18 276.332 389.956 270.108 408.189 298.115C394.999 292.28 394.611 284.501 408.189 313.675C422.931 349.85 406.25 357.63 435.733 420.256C477.162 433.538 505.083 448.708 495.653 454.138C491.124 461.929 474.446 453.446 463.58 451.94C441.085 451.112 429.058 449.945 420.136 451.112C391.443 438.579 404.623 454.503 420.14 455.282C433.737 456.448 422.852 465.361 420.14 465.006C402.701 462.723 384.468 458.833 377.878 450.608C371.278 441.606 372.054 440.162 371.278 435.105C349.059 458.433 244.703 480.994 241.599 449.003H219.167C207.072 449.003 199.701 446.806 174.485 446.806H157.065C157.809 465.006 120.961 466.851 110.111 462.753C-11.6693 417.148 -7.84226 333.919 25.5209 317.582C23.6137 301.519 22.0815 303.129 14.2875 311.321L13.8826 311.747C19.7017 286.074 20.8656 286.852 10.391 299.299C10.391 275.96 47.2456 224.615 61.5991 191.162C82.548 119.978 101.169 117.572 107.764 112.198C110.868 109.67 135.308 95.8612 148.886 92.3606C152.766 55.7962 179.012 38.3472 196.537 31.5743C192.59 37.5693 191.426 37.5693 202.289 30.3662C200.737 34.4574 196.441 39.6214 208.404 30.3661C209.272 36.7913 204.903 34.763 215.479 29.0117Z" fill="#AFBF41" stroke="#AFBF41" stroke-width="2" stroke-linecap="round"/>
<path d="M177.978 449.095C155.48 467.377 160.91 450.65 168.669 445.204L181.86 438.203C181.86 440.537 181.083 445.983 177.978 449.095Z" fill="#AFBF41"/>
<path d="M189.643 452.989C173.347 471.656 174.9 458.432 181.106 450.265L183.82 442.871L188.863 435.48C189.289 437.775 193.906 444.427 189.643 452.989Z" fill="#AFBF41"/>
<path d="M203.224 449.483C191.584 470.098 188.095 458.04 194.686 447.926L197.788 441.703L202.443 435.09C202.868 437.384 205.938 440.326 203.224 449.483Z" fill="#AFBF41"/>
<path d="M214.845 446.763C203.205 467.377 203.595 452.986 207.57 443.391L210.672 437.167L215.327 430.555C215.752 432.849 217.559 437.605 214.845 446.763Z" fill="#AFBF41"/>
<path d="M173.495 183.099C173.616 183.156 173.753 183.168 173.881 183.127C174.008 183.086 174.114 182.997 174.176 182.879C174.237 182.761 174.25 182.623 174.211 182.495C174.172 182.366 174.083 182.259 173.968 182.194C172.328 181.269 170.784 180.362 169.239 179.421C155.439 170.972 141.737 159.866 137.858 144.092C134.003 128.346 140.084 111.993 146.099 96.9186C146.795 95.2086 147.488 93.5438 148.208 91.8374C148.26 91.7145 148.264 91.5757 148.217 91.4502C148.17 91.3246 148.076 91.223 147.955 91.1672C147.834 91.1115 147.696 91.1061 147.571 91.1519C147.445 91.1977 147.342 91.2912 147.284 91.4106C146.458 93.0739 145.665 94.6998 144.872 96.3756C138.045 111.116 131.134 127.744 135.224 144.753C139.475 161.796 154.263 172.882 168.575 180.589C170.185 181.45 171.793 182.268 173.495 183.099Z" fill="#FAF8F2"/>
<path d="M255.092 185.785C254.979 185.857 254.843 185.883 254.712 185.857C254.58 185.83 254.466 185.754 254.391 185.643C254.317 185.533 254.289 185.397 254.314 185.265C254.338 185.133 254.414 185.016 254.522 184.939C256.072 183.822 257.547 182.722 258.994 181.607C272.092 171.439 284.574 159.126 288.68 143.121C292.887 127.073 286.42 110.435 278.462 95.9719C277.568 94.3374 276.656 92.7283 275.714 91.1096C275.647 90.9944 275.626 90.8571 275.656 90.7266C275.687 90.5961 275.768 90.4833 275.88 90.4126C275.993 90.342 276.129 90.319 276.259 90.3484C276.391 90.3779 276.504 90.4576 276.578 90.5685C277.62 92.1345 278.63 93.6971 279.62 95.2927C288.382 109.33 295.787 126.564 291.313 143.789C286.881 160.892 273.49 173.194 259.781 182.696C258.262 183.737 256.714 184.756 255.092 185.785Z" fill="#FAF8F2"/>
<path d="M170.897 154.286C170.967 154.314 171.047 154.314 171.118 154.286C171.189 154.258 171.246 154.202 171.276 154.132C171.306 154.062 171.307 153.983 171.28 153.911C171.252 153.84 171.198 153.782 171.129 153.75C170.058 153.249 169.043 152.699 168.045 152.084C159.005 146.551 153.792 136.441 152.141 126.175C150.491 115.867 151.851 104.871 156.97 95.6379C157.542 94.6195 158.168 93.6237 158.84 92.6698C158.883 92.6074 158.902 92.5303 158.891 92.4544C158.88 92.3786 158.839 92.3103 158.778 92.2646C158.717 92.2189 158.641 92.1992 158.565 92.2098C158.489 92.2203 158.421 92.2604 158.373 92.3202C157.637 93.2526 156.947 94.2336 156.312 95.2434C150.613 104.415 148.897 115.783 150.61 126.428C152.288 137.026 158.079 147.539 167.66 152.748C168.713 153.329 169.78 153.834 170.897 154.286Z" fill="#FAF8F2"/>
<path d="M173.063 111.764C173.046 111.838 173.056 111.915 173.093 111.981C173.129 112.048 173.191 112.097 173.263 112.118C173.335 112.139 173.413 112.131 173.479 112.095C173.546 112.059 173.597 111.999 173.621 111.928C173.821 111.36 174.016 110.829 174.223 110.277C176.08 105.451 178.343 100.389 182.614 97.7875C186.905 95.1937 192.408 95.6628 197.538 96.3218C198.128 96.4019 198.682 96.482 199.274 96.5738C199.349 96.5855 199.426 96.5699 199.489 96.5272C199.551 96.4851 199.596 96.4206 199.611 96.3467C199.627 96.2735 199.613 96.1965 199.572 96.132C199.531 96.0682 199.467 96.0223 199.395 96.0028C198.811 95.8464 198.264 95.7056 197.678 95.5664C192.617 94.4095 186.793 93.5001 181.812 96.4548C176.913 99.4928 174.884 105.028 173.493 110.042C173.34 110.618 173.202 111.173 173.063 111.764Z" fill="#FAF8F2"/>
<path d="M248.658 108.365C248.683 108.436 248.682 108.515 248.653 108.585C248.624 108.655 248.569 108.711 248.5 108.74C248.431 108.769 248.353 108.77 248.283 108.742C248.212 108.714 248.155 108.66 248.122 108.592C247.873 108.084 247.632 107.613 247.372 107.117C245.093 102.8 242.186 98.5015 237.765 96.8475C233.361 95.1835 228.305 96.1738 223.581 97.4116C223.042 97.557 222.532 97.6986 221.989 97.8573C221.917 97.8783 221.839 97.8729 221.771 97.8394C221.703 97.806 221.651 97.7476 221.626 97.6769C221.601 97.6061 221.604 97.5275 221.636 97.459C221.669 97.3898 221.726 97.3361 221.795 97.3073C222.32 97.0864 222.816 96.8841 223.344 96.6811C227.95 94.9477 233.249 93.5163 238.317 95.3935C243.407 97.333 246.24 102.23 248.068 106.795C248.279 107.324 248.466 107.826 248.658 108.365Z" fill="#FAF8F2"/>
<path d="M126.562 203.918C126.608 204.881 126.649 205.83 126.689 206.765C127.055 215.293 127.345 223.724 127.229 232.11C127.023 240.48 126.826 248.951 124.223 256.976C123.909 257.85 123.542 258.724 123.07 259.543C123.71 258.846 124.263 258.046 124.755 257.23C129.02 249.621 130.136 240.712 130.333 232.156C130.451 223.548 129.301 214.991 127.273 206.681C127.049 205.77 126.812 204.849 126.562 203.918Z" fill="#FAF8F2"/>
<path d="M92.8438 252.113C96.4299 253.843 100.006 255.608 103.525 257.459C124.03 266.971 137.784 284.495 150.922 302.447L150.932 302.46C159.829 313.481 170.153 322.16 180.044 331.418C187.295 338.249 195.431 345.09 200.644 352.434C201.891 354.485 202.762 356.246 203.012 358.331C203.165 360.685 204.163 364.213 205.53 366.466C211.914 377.294 219.125 387.896 222.967 398.99C224.665 406.868 226.076 414.98 226.301 423.084C226.25 426.939 226.484 431.329 223.76 434.342C226.836 431.585 227.069 427.021 227.479 423.118C228.021 414.844 227.277 406.579 226.121 398.387C222.697 385.531 216.015 374.855 210.22 363.976C209.13 361.797 208.732 360.345 208.552 357.65C208.309 354.658 206.974 351.752 205.63 349.452C199.309 340.109 191.643 333.887 184.241 326.834C174.363 317.613 163.708 308.84 155.254 299.067L155.264 299.08C141.662 281.685 125.446 263.869 104.023 256.387C100.326 254.865 96.5897 253.461 92.8438 252.113Z" fill="#FAF8F2"/>
<path d="M132.333 404.098C131.538 403.541 130.756 402.901 130.022 402.248C123.542 396.191 118.252 389.017 112.332 382.347C106.447 375.668 100.336 368.951 92.9731 363.715C92.1391 363.136 91.2926 362.592 90.4453 362.109C91.1723 362.761 91.8885 363.453 92.5937 364.168C98.7535 370.584 104.09 377.694 109.996 384.396C115.901 391.05 121.995 397.864 129.674 402.725C130.531 403.239 131.438 403.722 132.333 404.098Z" fill="#FAF8F2"/>
<path d="M107.17 449.627C107.011 449.157 106.866 448.694 106.734 448.237C105.502 444.043 105.192 439.74 105.937 435.59C106.679 431.455 108.356 427.427 110.882 423.911C111.173 423.52 111.475 423.134 111.808 422.797C111.409 423.054 111.029 423.378 110.663 423.713C107.451 426.725 105.197 430.88 104.409 435.318C103.599 439.771 104.425 444.436 106.46 448.347C106.68 448.773 106.917 449.2 107.17 449.627Z" fill="#FAF8F2"/>
<path d="M127.594 443.621C128.13 443.754 128.658 443.878 129.18 443.994C133.945 445.056 138.659 445.582 143.379 445.599C148.1 445.607 152.824 445.161 157.571 444.063C158.095 443.939 158.631 443.8 159.139 443.655C158.695 443.942 158.209 444.22 157.727 444.478C153.352 446.79 148.362 447.949 143.371 447.933C138.376 447.922 133.407 446.68 129.03 444.411C128.55 444.162 128.072 443.899 127.594 443.621Z" fill="#FAF8F2"/>
<path d="M126.32 454.971C126.832 455.058 127.335 455.137 127.829 455.209C132.341 455.884 136.762 456.211 141.147 456.008C145.525 455.807 149.868 455.058 154.192 453.603C154.673 453.446 155.162 453.27 155.641 453.133C155.23 453.41 154.812 453.716 154.388 454.001C150.584 456.619 145.932 458.137 141.255 458.339C136.562 458.561 131.892 457.532 127.704 455.635C127.245 455.426 126.784 455.205 126.32 454.971Z" fill="#FAF8F2"/>
<path d="M203.202 371.938C202.869 372.539 202.53 373.108 202.175 373.668C198.972 378.776 194.445 382.631 189.228 385.118C184.01 387.587 178.205 389.039 172.228 389.157C171.58 389.152 170.885 389.13 170.25 388.987C170.837 389.278 171.533 389.452 172.18 389.597C178.19 390.756 184.597 389.9 190.236 387.221C195.889 384.562 200.491 379.621 202.57 373.866C202.805 373.234 203.013 372.599 203.202 371.938Z" fill="#FAF8F2"/>
<path d="M437.5 418.387C436.953 419.032 436.391 419.641 435.8 420.235C430.478 425.574 423.6 428.847 416.507 430.966C409.384 433.023 401.918 434.24 394.424 433.98C393.592 433.915 392.726 433.869 391.984 433.557C392.687 433.966 393.559 434.115 394.388 434.274C401.903 435.382 409.633 434.574 416.949 432.457C424.224 430.303 431.274 426.414 436.021 420.432C436.547 419.769 437.036 419.094 437.5 418.387Z" fill="#FAF8F2"/>
<path d="M455.359 439.398C456.091 439.234 456.847 439.122 457.591 439.059C464.384 438.614 470.869 441.024 477.02 443.654C483.145 446.414 489.217 449.568 494.566 453.715C495.122 454.191 495.748 454.706 496.093 455.346C495.84 454.655 495.268 454.049 494.769 453.5C489.892 448.649 483.9 445.046 477.643 442.229C471.388 439.54 464.398 437.454 457.547 438.767C456.805 438.924 456.062 439.134 455.359 439.398Z" fill="#FAF8F2"/>
<path d="M147.079 411.914C146.224 410.495 144.593 409.747 143.161 408.995C135.938 405.632 127.323 404.547 119.342 407.301L119.293 407.322C112.86 409.842 106.719 413.169 101.365 417.741C89.4745 426.403 83.2945 447.947 96.947 457.47C98.2784 458.479 99.6843 459.302 101.179 459.988C99.81 459.076 98.5686 458.061 97.4319 456.913C86.2639 445.997 93.1514 429.06 103.885 420.698C108.839 416.467 114.519 413.115 120.553 410.282L120.504 410.302C127.306 407.414 135.462 407.436 142.886 409.681C144.368 410.205 146.036 410.68 147.079 411.914Z" fill="#FAF8F2"/>
<path d="M131.056 419.154C130.95 419.013 130.851 418.876 130.757 418.741C129.883 417.543 129.133 416.165 129.466 415.44C129.722 414.648 131.119 413.947 132.511 413.479C132.672 413.425 132.828 413.372 132.996 413.32C132.828 413.268 132.668 413.222 132.497 413.184C131.071 412.891 128.984 412.837 128.009 414.904C127.4 417.207 129.271 418.392 130.574 418.972C130.729 419.037 130.889 419.097 131.056 419.154Z" fill="#FAF8F2"/>
<path d="M129.523 419.93C129.906 420.302 130.34 420.657 130.791 420.989C134.891 423.877 139.702 425.437 144.403 426.745C149.118 428.086 154 428.666 158.592 430.117C159.071 430.311 159.593 430.521 159.92 430.955C159.726 430.433 159.238 430.053 158.805 429.728C154.506 427.029 149.677 425.823 145.009 424.492C140.318 423.185 135.553 422.299 131.006 420.601C130.499 420.398 129.997 420.176 129.523 419.93Z" fill="#FAF8F2"/>
<path d="M159.915 430.965C159.983 431.232 159.802 431.389 159.614 431.515C159.433 431.628 159.205 431.72 158.987 431.79C154.819 432.77 150.422 432.744 146.183 433.002C141.917 433.141 137.673 433.448 133.397 432.546C132.929 432.438 132.445 432.297 131.984 432.133C132.336 432.473 132.743 432.798 133.155 433.086C137.032 435.661 141.839 436.275 146.32 436.111C150.807 435.84 155.412 434.992 159.278 432.305C159.475 432.139 159.683 431.946 159.829 431.729C159.991 431.509 160.095 431.178 159.915 430.965Z" fill="#FAF8F2"/>
<path d="M146.965 411.773C147.061 412.144 147.113 412.493 147.124 412.842C147.109 416.115 143.503 416.87 140.709 417.639C137.731 418.32 134.624 418.759 131.374 418.796C131.016 418.798 130.643 418.789 130.281 418.774C130.603 418.94 130.949 419.094 131.289 419.231C134.408 420.457 137.915 420.68 141.245 419.911C142.909 419.508 144.562 418.86 145.974 417.687C147.393 416.612 148.397 414.36 147.554 412.739C147.397 412.385 147.2 412.075 146.965 411.773Z" fill="#FAF8F2"/>
<path d="M293.552 451.569C293.711 451.098 293.856 450.635 293.988 450.179C295.22 445.985 295.53 441.682 294.784 437.531C294.043 433.396 292.366 429.368 289.84 425.852C289.549 425.462 289.246 425.075 288.914 424.738C289.313 424.996 289.693 425.319 290.059 425.655C293.271 428.666 295.525 432.821 296.313 437.26C297.123 441.713 296.297 446.377 294.261 450.288C294.042 450.715 293.805 451.142 293.552 451.569Z" fill="#FAF8F2"/>
<path d="M264.468 419.569C264.56 419.406 264.643 419.254 264.73 419.095C265.471 417.737 266.329 416.081 265.5 415.359C264.629 414.502 262.976 414.048 261.495 413.503C261.33 413.444 261.16 413.385 260.984 413.324C261.169 413.308 261.35 413.294 261.526 413.283C263.13 413.254 264.858 413.203 266.353 414.565C267.143 415.322 267.006 416.667 266.555 417.374C266.123 418.147 265.531 418.721 264.9 419.237C264.757 419.354 264.618 419.457 264.468 419.569Z" fill="#FAF8F2"/>
<path d="M264.445 419.572C262.31 420.352 259.995 420.611 257.712 420.711C254.598 420.819 251.457 420.589 248.378 419.824C246.851 419.424 245.314 418.92 243.906 417.93C243.218 417.431 242.535 416.774 242.182 415.832C241.814 414.887 241.978 413.783 242.379 412.962L242.331 413.079C245.835 406.6 252.897 405.876 258.803 404.716C264.931 403.899 271.327 404.008 277.351 406.251L277.262 406.22C279.4 406.877 281.472 407.647 283.49 408.541C302.526 415.781 317.961 441.841 303.422 459.403C301.918 461.145 300.16 462.643 298.233 463.872C300.057 462.494 301.676 460.883 303.02 459.078C315.635 441.169 300.33 418.085 282.393 411.032C280.474 410.181 278.502 409.441 276.464 408.797L276.376 408.766C266 405.297 250.951 405.532 243.901 413.574L243.854 413.692C242.413 415.977 245.999 417.921 248.688 418.734C251.575 419.642 254.645 420.08 257.71 420.194C259.963 420.256 262.258 420.177 264.445 419.572Z" fill="#FAF8F2"/>
<path d="M267.183 430.463C265.978 430.944 264.746 431.373 263.498 431.751C252.412 434.552 239.206 436.64 229.035 427.964C228.544 427.288 228.162 426.485 228.018 425.597L228.001 425.406C227.96 424.178 228.937 423.165 229.659 422.781C230.416 422.34 231.182 422.115 231.895 421.942C233.348 421.603 234.756 421.475 236.161 421.384C238.966 421.217 241.717 421.255 244.469 421.297C249.953 421.348 255.466 421.725 260.833 420.836C262.094 420.593 263.36 420.262 264.461 419.578C263.448 420.393 262.193 420.883 260.938 421.267C255.574 422.762 249.96 422.838 244.491 423.101C241.748 423.215 239.013 423.302 236.328 423.547C234.99 423.676 233.657 423.84 232.439 424.15C231.224 424.417 230.155 425.116 230.323 425.407L230.307 425.215C230.387 425.687 230.595 426.146 230.919 426.592C238.806 433.47 252.332 433.089 263.392 431.32C264.663 431.081 265.929 430.796 267.183 430.463Z" fill="#FAF8F2"/>
<path d="M236.523 432.016C235.687 432.46 234.952 432.903 234.226 433.407C232.674 434.465 231.017 436.148 231.404 437.505C231.747 438.845 233.528 439.856 235.225 440.539C238.753 441.904 242.616 442.468 246.521 442.875C254.297 443.624 262.276 443.487 270.294 443.005C271.177 442.951 272.072 442.891 272.981 442.822C272.111 443.095 271.248 443.35 270.391 443.588C262.611 445.734 254.382 446.758 246.216 445.972C242.104 445.537 238.037 444.756 234.18 442.788C232.368 441.752 230.104 440.495 229.727 437.712C229.737 434.804 232.22 433.69 233.942 432.889C234.786 432.532 235.611 432.267 236.523 432.016Z" fill="#FAF8F2"/>
<path d="M277.18 404.324C278.316 404.41 279.451 403.912 280.476 403.462C289.707 398.599 297.215 391.624 304.846 384.988C312.46 378.33 319.538 371.077 327.807 365.352C328.771 364.724 329.74 364.15 330.731 363.664C329.654 363.904 328.562 364.263 327.469 364.695C317.941 368.715 309.898 375.406 302.271 382.079C294.584 388.768 287.881 396.413 280.103 402.824C279.221 403.456 278.285 404.146 277.18 404.324Z" fill="#FAF8F2"/>
<path d="M164.826 447.68C168.522 445.725 170.953 441.66 171.2 437.423C171.824 424.11 162.928 412.426 161.453 400.621C162.044 394.571 156.461 389.878 151.974 387.751C147.324 385.297 142.765 383.125 138.715 380.178C127.903 372.331 116.116 365.48 104.06 360.005C103.361 359.659 102.676 359.315 102.004 358.972C86.4448 351.3 72.8668 340.519 62.9106 326.143C62.158 325.142 61.5908 324.408 60.8182 323.49C60.5358 323.157 60.0045 322.555 59.639 322.217C59.486 322.071 59.3386 321.941 59.1854 321.822C59.1086 321.762 59.0304 321.705 58.9472 321.651C58.8974 321.618 58.8899 321.613 58.7937 321.556C58.7042 321.504 58.6074 321.453 58.4954 321.408C58.2736 321.318 57.9772 321.225 57.5682 321.267C57.4056 321.279 57.0439 321.376 56.8001 321.553C56.5443 321.728 56.3674 321.957 56.2608 322.157C56.1544 322.351 56.0966 322.561 56.0751 322.666C56.0569 322.753 56.0453 322.832 56.0376 322.907C56.0225 323.058 56.0219 323.191 56.027 323.319C56.4578 326.176 57.3177 327.817 58.0161 329.946C58.7251 331.964 59.484 334.028 59.8875 335.948C59.9825 336.401 60.0298 336.937 60.0018 337.086C60.0012 337.115 59.9926 337.084 60.0814 336.961C60.1555 336.845 60.4069 336.683 60.5747 336.671C60.7531 336.654 60.7454 336.682 60.7342 336.676C60.716 336.674 60.6483 336.652 60.5566 336.605C60.3207 336.5 59.8161 336.132 59.4995 335.867C59.314 335.714 59.112 335.538 58.894 335.339C58.7134 335.174 58.5519 335.024 58.3673 334.847C52.3877 328.774 47.2346 321.898 41.8755 315.053L41.8379 315.006C39.9813 312.948 37.0272 312.34 34.5065 312.684C30.2847 313.242 26.5194 315.129 22.8359 316.989C26.6185 315.361 30.5218 313.717 34.57 313.42C37.0065 313.24 39.4932 313.942 40.9878 315.78L40.9502 315.734C45.9814 322.886 50.7121 329.902 56.7176 336.505C56.9085 336.703 57.0764 336.874 57.2688 337.064C57.5026 337.293 57.7243 337.501 57.9357 337.69C58.2961 338.017 58.8922 338.505 59.4018 338.783C59.599 338.891 59.8116 338.988 60.0352 339.057C60.1477 339.091 60.265 339.119 60.3894 339.138C60.421 339.143 60.4505 339.146 60.4854 339.15C60.5349 339.155 60.5855 339.158 60.6372 339.159C60.7405 339.162 60.8481 339.155 60.9583 339.139C61.9633 339.017 62.4257 337.982 62.4738 337.578C62.6298 336.674 62.5087 336.104 62.428 335.499C62.0222 333.18 61.3204 331.124 60.6713 329.046C60.0512 327.047 59.1996 324.695 59.0305 323.218C59.0307 323.199 59.0336 323.2 59.0311 323.234C59.0297 323.251 59.0268 323.277 59.0195 323.313C59.0109 323.355 58.9842 323.467 58.9118 323.601C58.8402 323.736 58.7065 323.915 58.5025 324.054C58.3078 324.197 58.0194 324.272 57.8987 324.281C57.5895 324.312 57.4124 324.242 57.3307 324.211C57.2444 324.174 57.2522 324.172 57.2555 324.177C57.2607 324.182 57.2763 324.194 57.2994 324.214C57.3457 324.253 57.4211 324.321 57.5157 324.416C57.7342 324.632 58.1893 325.163 58.4321 325.472C59.1083 326.32 59.6358 327.047 60.3414 328.033C69.9603 342.838 84.4213 354.704 100.245 362.44C100.933 362.79 101.633 363.142 102.347 363.493C114.509 369.011 125.835 375.44 136.746 382.996C144.788 389.478 158.881 390.352 158.924 400.621C161.233 414.227 170.352 424.354 170.465 437.378C170.448 441.44 168.399 445.476 164.826 447.68Z" fill="#FAF8F2"/>
<path d="M331.977 345.65C334.823 344.696 337.679 343.925 340.58 343.314C365.608 337.799 398.423 345.825 404.239 370.871C408.459 395.85 387.791 418.871 369.555 437.11C367.48 439.136 365.299 441.195 363.006 443.285C365.556 441.52 367.994 439.761 370.322 438.008C390.517 422.078 414.795 400.198 410.307 369.564C402.269 338.377 364.454 333.439 340.266 342.174C337.419 343.157 334.665 344.312 331.977 345.65Z" fill="#FAF8F2"/>
<path d="M154.109 251.25C155.456 252.748 156.991 254.079 158.657 255.239C173.507 264.934 192.365 262.773 208.809 262.138C209.827 262.14 210.816 262.156 211.809 262.186C221.571 262.195 231.531 265.74 241.846 264.472L241.9 264.468C249.891 263.397 258.126 261.618 264.769 256.795C266.399 255.567 267.859 254.119 268.94 252.417C267.69 253.998 266.129 255.261 264.437 256.307C257.577 260.372 249.534 261.5 241.668 262.148L241.722 262.144C231.791 262.876 222.295 259.142 211.903 259.076C210.878 259.044 209.857 259.03 208.809 259.034C191.771 259.76 174.269 262.767 158.971 254.738C157.24 253.758 155.602 252.601 154.109 251.25Z" fill="#FAF8F2"/>
<path d="M332.267 335.659C332.034 333.342 331.814 331.038 331.591 328.735C330.737 319.018 329.394 309.653 326.605 300.541C323.939 289.994 317.683 281.845 311.368 272.426C309.484 269.583 307.681 266.731 305.924 263.788C299.596 253.147 294.292 239.287 299.336 226.546C300.744 222.264 301.405 216.832 302.194 211.84C302.533 209.552 302.856 207.259 303.17 204.957C303.322 207.275 303.44 209.593 303.519 211.914C303.616 217.133 303.945 222.036 302.925 227.711C300.148 238.984 305.52 250.311 311.737 260.184C313.535 263.007 315.333 265.76 317.184 268.553C323.167 277.416 330.153 287.782 331.829 299.289C333.808 308.999 333.83 319.082 332.918 328.728C332.722 331.039 332.5 333.342 332.267 335.659Z" fill="#FAF8F2"/>
<path d="M176.93 156.857C180.485 146.566 196.776 123.117 213.036 129.288C224.964 121.876 249.891 151.915 250.735 162.199C255.88 224.926 159.882 206.202 176.93 156.857Z" fill="#FAF8F2" stroke="#FAF8F2" stroke-width="2"/>
<path d="M219.375 114.585C224.418 106.414 235.281 106.803 238.772 114.585C235.669 121.195 225.194 123.14 219.375 114.585Z" fill="#FAF8F2" stroke="#FAF8F2" stroke-width="0.5"/>
<path d="M215.077 143.05C213.937 139.942 222.125 135.402 224.352 137.919C226.142 139.943 215.924 145.826 215.077 143.05Z" fill="#AFBF41" stroke="#AFBF41"/>
<path d="M208.436 142.653C209.53 139.491 201.301 134.989 199.116 137.566C197.359 139.636 207.631 145.475 208.436 142.653Z" fill="#AFBF41" stroke="#AFBF41"/>
<path d="M230.645 118.471C232.788 118.471 234.524 116.73 234.524 114.581C234.524 112.433 232.788 110.691 230.645 110.691C228.503 110.691 226.766 112.433 226.766 114.581C226.766 116.73 228.503 118.471 230.645 118.471Z" fill="#AFBF41"/>
<path d="M202.811 114.335C197.768 106.164 186.906 106.553 183.414 114.335C186.518 120.945 196.992 122.89 202.811 114.335Z" fill="#FAF8F2" stroke="#FAF8F2" stroke-width="0.5"/>
<path d="M193.519 118.455C191.376 118.455 189.64 116.714 189.64 114.566C189.64 112.417 191.376 110.676 193.519 110.676C195.662 110.676 197.398 112.417 197.398 114.566C197.398 116.714 195.662 118.455 193.519 118.455Z" fill="#AFBF41"/>
<path d="M218.345 430.04C219.897 436.653 226.104 440.543 226.88 426.539C226.88 428.484 229.285 430.818 221.837 449.489H214.078C214.466 448.322 217.57 439.376 218.345 430.04Z" fill="#AFBF41" stroke="#AFBF41" stroke-width="0.25" stroke-miterlimit="1.74345" stroke-linecap="round"/>
<path d="M269.564 91.2603C228.03 41.8308 178.373 56.2232 152.211 100.997C173.147 42.2658 235.013 37.5501 269.564 91.2603Z" fill="#FAF8F2" stroke="#FAF8F2" stroke-width="2" stroke-linecap="round"/>
<path d="M239.287 166.305C227.263 180.306 195.839 176.027 186.141 167.083C203.986 176.805 224.547 177.972 239.287 166.305Z" fill="#AFBF41"/>
<path d="M239.278 166.296L239.424 166.423C239.49 166.347 239.487 166.234 239.418 166.161C239.348 166.089 239.236 166.081 239.157 166.144L239.278 166.296ZM186.131 167.075L186.223 166.904L186 167.218L186.131 167.075ZM239.278 166.296L239.131 166.169C233.177 173.102 222.391 175.532 211.84 175.096C206.571 174.878 201.376 173.944 196.895 172.51C192.411 171.074 188.658 169.141 186.262 166.932L186.131 167.075L186 167.218C188.453 169.48 192.265 171.436 196.777 172.881C201.292 174.326 206.522 175.264 211.825 175.485C222.416 175.923 233.354 173.491 239.424 166.423L239.278 166.296ZM239.278 166.296L239.157 166.144C224.499 177.746 204.028 176.603 186.223 166.904L186.131 167.075L186.039 167.246C203.926 176.99 224.576 178.18 239.398 166.449L239.278 166.296Z" fill="#AFBF41"/>
<path d="M208.9 47.0183C209.321 48.5504 209.404 49.7997 209.294 50.8177C210.762 49.9464 212.74 49.045 215.274 48.2947L216.59 47.9049L215.671 48.9275C215.155 49.5026 214.678 49.9864 214.257 50.3855C215.705 49.8234 217.966 49.0161 221.275 48.0637L222.542 47.699L221.675 48.6935C220.97 49.5011 220.022 50.2816 219.227 50.9104C218.924 51.1506 218.648 51.3679 218.408 51.5585C218.466 51.5415 218.528 51.5246 218.592 51.5053C219.775 51.1511 221.828 50.4356 225.131 49.239L225.651 49.0506L225.65 49.6045C225.65 50.0912 225.637 50.531 225.634 50.8869C225.63 51.2535 225.636 51.5372 225.665 51.759C225.694 51.9833 225.744 52.0989 225.792 52.1609C225.83 52.2089 225.893 52.2584 226.049 52.2832C226.219 52.3102 226.471 52.3027 226.846 52.2407C227.216 52.1794 227.682 52.0699 228.268 51.9102C229.442 51.5903 231.056 51.0822 233.292 50.3999L234.239 50.1112L233.739 50.9682C232.897 52.4137 232.294 53.3459 231.971 53.9767C231.826 54.2616 231.772 54.4263 231.761 54.513C231.866 54.5449 232.073 54.5622 232.447 54.5412C232.821 54.5202 233.306 54.4667 233.925 54.3946C235.159 54.2509 236.889 54.0375 239.198 53.8848L240.672 53.7875L239.437 54.5989C238.383 55.2905 237.445 55.9538 236.799 56.5074C236.475 56.7856 236.242 57.0225 236.103 57.2093C236.056 57.2735 236.027 57.3261 236.009 57.3644C236.049 57.3762 236.108 57.39 236.191 57.3985C236.457 57.4258 236.877 57.4049 237.491 57.3119C238.715 57.1269 240.612 56.6689 243.381 55.8448L244.259 55.5843L243.836 56.398C243.157 57.7039 242.651 58.7231 242.297 59.5288C243.21 59.5666 244.218 59.6651 245.319 59.8426L246.673 60.0614L245.405 60.5864C244.924 60.7853 244.483 60.9492 244.087 61.0832C245.393 61.1932 247.314 61.4082 249.961 61.8559L251.26 62.0754L250.049 62.5966C249.215 62.9555 248.207 63.2036 247.375 63.3913C247.181 63.435 246.999 63.4776 246.83 63.5151C247.878 63.6731 249.658 63.8713 252.457 64.1525L253.007 64.208L252.768 64.7087C252.591 65.0783 252.422 65.4093 252.291 65.6765C252.154 65.9537 252.057 66.1674 252 66.3421C251.943 66.5185 251.942 66.6113 251.953 66.6604C251.96 66.6923 251.98 66.7415 252.08 66.8108C252.191 66.8874 252.378 66.9712 252.682 67.0601C252.983 67.1478 253.374 67.2336 253.877 67.3259C254.882 67.5108 256.29 67.714 258.236 68.0112L259.215 68.1609L258.395 68.7178C257.228 69.5111 256.435 69.9948 255.964 70.355C255.799 70.4808 255.708 70.5703 255.658 70.627C255.734 70.6803 255.872 70.7547 256.108 70.8519C256.397 70.9711 256.782 71.1068 257.279 71.2781C258.268 71.6189 259.66 72.088 261.472 72.815L262.842 73.365L261.379 73.5611C260.328 73.702 259.378 73.8641 258.692 74.0481C258.346 74.1407 258.087 74.2332 257.921 74.3215C257.901 74.3321 257.885 74.3449 257.869 74.3542C257.885 74.3649 257.902 74.3775 257.922 74.3899C258.108 74.5037 258.428 74.6403 258.927 74.7934C259.918 75.0974 261.521 75.4411 263.923 75.8251L264.827 75.9694L264.095 76.5202C262.387 77.805 261.266 78.4771 260.592 78.8572C260.456 78.9336 260.344 78.9955 260.251 79.0464C260.425 79.1603 260.642 79.3148 260.886 79.5348C261.473 80.0642 262.203 80.9485 262.937 82.4986C263.154 82.9546 263.307 83.297 263.396 83.5303C263.439 83.6427 263.475 83.7517 263.492 83.8425C263.5 83.882 263.512 83.9603 263.496 84.0461C263.487 84.0922 263.467 84.1669 263.408 84.2383C263.342 84.3189 263.25 84.3688 263.152 84.3834C262.996 84.4066 262.878 84.3342 262.851 84.3174C262.804 84.2881 262.762 84.2528 262.729 84.2232C262.663 84.1621 262.587 84.0793 262.507 83.9861C262.344 83.7967 262.127 83.5215 261.866 83.1808C260.818 81.8095 258.977 79.2784 256.612 76.385C254.247 73.4929 251.371 70.253 248.271 67.4817C248.121 67.3478 247.97 67.2159 247.819 67.0844C247.63 66.9799 247.421 66.864 247.195 66.7371C245.236 65.6399 241.895 63.7196 237.853 61.6561C237.663 61.6912 237.49 61.7182 237.332 61.7336C236.949 61.7711 236.611 61.7589 236.373 61.6598C236.251 61.6091 236.093 61.5086 236.023 61.318C235.95 61.1174 236.013 60.9339 236.089 60.815C236.096 60.8036 236.104 60.7929 236.112 60.7816C232.01 58.7524 227.346 56.6823 222.75 55.2036C217.792 53.6081 212.956 52.7138 209.003 53.2579C208.525 53.6749 208.103 53.9903 207.746 54.219C207.735 54.2288 207.727 54.2392 207.718 54.2487C207.893 54.2428 208.104 54.2359 208.359 54.2274C209.809 54.1785 212.475 54.1139 217.079 54.314C217.674 54.3399 218.093 54.3607 218.347 54.3786C218.468 54.3871 218.572 54.396 218.639 54.4082C218.656 54.4114 218.685 54.4172 218.715 54.4272C218.73 54.4321 218.758 54.4419 218.789 54.4591C218.81 54.471 218.888 54.5148 218.942 54.6095C218.964 54.6563 218.992 54.7636 218.994 54.8231C218.986 54.8805 218.952 54.9798 218.928 55.0213C218.873 55.1033 218.802 55.1412 218.782 55.152C218.731 55.1785 218.685 55.1899 218.672 55.193C218.605 55.2086 218.504 55.2186 218.406 55.2264C218.296 55.2353 218.152 55.2444 217.979 55.2545C217.632 55.2747 217.154 55.2986 216.567 55.3298C214.212 55.4549 210.055 55.6956 205.215 56.2604C200.374 56.8255 194.86 57.7139 189.791 59.133C184.759 60.5417 180.209 62.4635 177.185 65.0756C176.989 65.7547 176.788 66.2918 176.592 66.6954C176.442 67.0067 176.28 67.2666 176.11 67.4483C176.123 67.4705 176.134 67.4918 176.146 67.5121C176.291 67.7672 176.379 67.8729 176.467 67.9269C176.54 67.972 176.669 68.013 176.977 67.9733C177.29 67.9328 177.73 67.8173 178.385 67.6071C179.697 67.1858 181.739 66.4301 185.109 65.2831C185.558 65.1303 185.896 65.0316 186.11 65.0034C186.165 64.9961 186.23 64.9917 186.296 64.9974C186.347 65.0017 186.479 65.0173 186.588 65.1235C186.734 65.2657 186.728 65.4483 186.697 65.5558C186.669 65.646 186.618 65.7144 186.587 65.7526C186.52 65.8354 186.424 65.9211 186.323 66.0025C186.217 66.0883 186.085 66.1874 185.932 66.2957C185.625 66.5125 185.219 66.7809 184.731 67.0958C182.774 68.3597 179.47 70.3916 175.806 72.9001C172.144 75.4077 168.141 78.3806 164.807 81.5078C161.462 84.6445 158.835 87.8972 157.862 90.9597L157.851 90.9939L157.833 91.0258C157.44 91.7581 157.105 92.3399 156.824 92.7785C156.549 93.2076 156.305 93.5312 156.089 93.7172C155.986 93.8066 155.84 93.9078 155.664 93.9288C155.44 93.9552 155.259 93.8486 155.15 93.6962C155.059 93.5694 155.017 93.413 154.993 93.2768C154.968 93.1321 154.957 92.9641 154.954 92.7792C154.944 92.0486 155.078 90.8713 155.286 89.3665C155.495 87.8547 155.786 85.9741 156.099 83.8296L156.308 82.4028L156.842 83.7408C157.213 84.6672 157.482 85.4591 157.682 86.0868C157.696 85.9194 157.71 85.7382 157.727 85.5451C157.848 84.2512 158.054 82.3732 158.448 79.8205L158.633 78.627L159.178 79.7043C159.576 80.4925 159.924 81.4253 160.22 82.1476C160.37 82.5164 160.505 82.8267 160.629 83.0547C160.665 83.1207 160.699 83.1756 160.729 83.2211C160.81 83.039 160.905 82.7294 161.002 82.2418C161.226 81.1322 161.449 79.2472 161.69 76.2703L161.744 75.5994L162.297 75.9816C162.972 76.4481 163.46 76.8827 163.81 77.2496C163.803 76.1393 163.952 74.2675 164.666 71.3518L164.889 70.4431L165.374 71.2416C165.793 71.932 166.129 72.4683 166.402 72.8689C166.669 73.2614 166.859 73.4957 166.992 73.618C167.018 73.5596 167.045 73.4819 167.075 73.3811C167.377 72.3529 167.683 69.5668 169.12 66.178L169.654 64.9207L169.86 66.2715C170.03 67.3814 170.28 68.2718 170.547 68.8515C170.682 69.1445 170.81 69.3308 170.914 69.4297C170.956 69.4708 170.983 69.4871 170.998 69.4935C171.021 69.4782 171.088 69.4228 171.178 69.245C171.288 69.0276 171.398 68.6885 171.496 68.2004C171.69 67.2271 171.818 65.7335 171.818 63.6055L171.817 62.8329L172.437 63.2933C173.69 64.2256 174.488 65.0484 175.033 65.7441C175.421 63.9828 176.751 61.007 179.76 57.492L180.654 56.4481L180.438 57.8073C180.257 58.9419 180.042 59.8741 179.861 60.5818C180.047 60.3371 180.262 60.0543 180.509 59.7362C181.449 58.5256 182.845 56.7786 184.873 54.4454L185.611 53.5961L185.553 54.7212C185.506 55.6325 185.312 56.6667 185.191 57.4699C185.129 57.8823 185.087 58.2288 185.084 58.4895C185.082 58.5758 185.087 58.645 185.093 58.6992C185.115 58.6872 185.142 58.6746 185.171 58.6559C185.396 58.5116 185.73 58.2176 186.205 57.713C187.15 56.7109 188.578 54.9591 190.701 52.1579L191.03 51.7226L191.332 52.1777C191.851 52.9586 192.132 53.6186 192.287 54.1339C192.908 53.0944 194.229 51.2597 197.067 48.4656L197.687 47.8555L197.726 48.7254C197.802 50.3876 197.729 51.5434 197.692 52.2415C197.69 52.2906 197.69 52.3368 197.689 52.3797C197.706 52.362 197.726 52.3441 197.745 52.325C197.986 52.0889 198.316 51.7544 198.744 51.3457C199.604 50.5239 200.873 49.3859 202.735 47.9953L203.919 47.111L203.321 48.4648C202.815 49.6136 202.448 50.64 202.293 51.3943C202.216 51.7753 202.2 52.0543 202.226 52.2338C202.239 52.3214 202.26 52.3649 202.271 52.3813C202.274 52.3855 202.276 52.3876 202.276 52.3881C202.274 52.3873 202.275 52.3868 202.276 52.3881C202.3 52.3953 202.431 52.4075 202.743 52.246C203.041 52.0923 203.437 51.8155 203.943 51.3814C204.954 50.5147 206.355 49.067 208.231 46.8687L208.706 46.3125L208.9 47.0183Z" fill="#FAF8F2"/>
<path d="M149.281 97.4474C150.215 97.5641 168.291 78.7784 179.542 72.5547C179.12 73.332 155.879 93.5591 152.387 102.506C152.129 102.635 149.993 98.0807 149.281 97.4474Z" fill="#AFBF41" stroke="#AFBF41" stroke-miterlimit="1.74345" stroke-linecap="round"/>
<path d="M271.89 87.725C266.515 85.4177 233.003 62.904 246.165 72.2607C245.539 72.0938 261.143 87.059 267.947 93.8357C268.218 93.9384 271.247 88.4272 271.89 87.725Z" fill="#AFBF41"/>
<path d="M246.582 72.5561C232.318 62.4441 266.46 85.3942 271.89 87.7249C271.247 88.4271 268.218 93.9383 267.947 93.8356C260.64 86.5572 243.181 69.833 246.582 72.5561Z" stroke="#AFBF41" stroke-miterlimit="1.74345" stroke-linecap="round"/>
<path d="M253.963 151.836C253.895 151.87 253.816 151.877 253.743 151.854C253.67 151.832 253.608 151.781 253.573 151.713C253.537 151.646 253.529 151.567 253.552 151.493C253.573 151.42 253.624 151.358 253.69 151.321C254.801 150.692 255.821 150.071 256.873 149.386C266.234 143.454 273.469 133.878 274.744 122.855C276.152 111.896 272.725 100.678 266.94 91.2132C266.292 90.1585 265.606 89.1187 264.895 88.1114C264.851 88.0491 264.832 87.9718 264.843 87.896C264.854 87.8201 264.894 87.7518 264.956 87.7061C265.017 87.6603 265.093 87.6407 265.169 87.6512C265.245 87.6618 265.313 87.7019 265.361 87.7619C266.132 88.7408 266.877 89.7577 267.583 90.7947C273.885 100.092 277.752 111.598 276.283 123.058C274.965 134.604 267.031 144.516 257.275 150.039C256.178 150.685 255.115 151.258 253.963 151.836Z" fill="#FAF8F2"/>
<path d="M273.024 453.786C272.296 453.816 271.575 453.836 270.855 453.848C264.367 453.945 258.045 453.452 251.848 452.377C246.022 451.062 238.389 450.348 235.801 444.907C235.689 444.259 235.829 443.553 236.17 442.895C235.664 443.43 235.285 444.121 235.211 444.92C235.287 448.78 238.974 450.841 241.787 452.386C244.797 453.907 248.051 454.864 251.312 455.442C257.867 456.584 264.626 456.209 270.941 454.433C271.641 454.235 272.334 454.019 273.024 453.786Z" fill="#FAF8F2"/>
<path d="M215.275 405.57C218.379 414.128 217.995 431.632 221.482 433.966C226.138 437.081 226.879 428.073 226.507 410.606M181.925 418.032C186.186 432.415 185.016 451.866 163.307 457.714C157.472 454.588 167.956 445.266 166.404 446.82" stroke="#FAF8F2" stroke-width="1.5" stroke-linecap="round"/>
<path d="M206.145 414.142C214.522 440.333 197.829 460.523 208.291 456.272C217.995 448.751 219.808 426.666 215.28 405.57M206.141 414.141C214.729 440.337 197.829 460.809 208.291 456.275" stroke="#FAF8F2" stroke-width="1.5" stroke-linecap="round"/>
<path d="M194.73 415.689C204.04 442.14 184.25 462.367 194.294 460.343C205.975 455.361 211.406 428.138 205.981 414.137M194.736 415.69C204.046 442.14 185.067 461.323 192.784 460.47" stroke="#FAF8F2" stroke-width="1.5" stroke-linecap="round"/>
<path d="M177.273 461.742C171.182 459.695 191.981 444.744 181.912 418.036C191.981 444.744 171.179 459.697 177.273 461.742ZM177.273 461.742C188.207 463.998 199.441 436.86 194.708 415.695" stroke="#FAF8F2" stroke-width="1.5" stroke-linecap="round"/>
</g>
</g>
<defs>
<clipPath id="clip0_1298_261">
<rect width="500" height="500" fill="white"/>
</clipPath>
</defs>
</svg>
