<svg width="815" height="815" viewBox="0 0 815 815" fill="none" xmlns="http://www.w3.org/2000/svg">
<g clip-path="url(#clip0_1049_1408)">
<path d="M373.351 10.0126C370.381 20.1386 368.756 16.659 380.04 12.719C375.351 18.5126 378.564 19.8316 391.664 10.9805C389.023 24.4414 383.523 11.7536 408.523 24.4414C430.073 35.378 444.851 58.0106 449.851 90.5106C527.851 126.011 530.851 140.011 550.851 188.011C554.71 197.273 552.21 204.815 582.71 251.913C597.608 274.917 583.726 289.419 621.726 333.419C597.226 327.919 598.226 319.919 621.726 355.919C604.726 348.419 604.226 338.419 621.726 375.919C640.726 422.419 619.226 432.419 657.226 512.919C710.622 529.992 746.607 549.491 734.453 556.471C728.617 566.486 707.121 555.582 693.116 553.646C664.123 552.581 648.623 551.081 637.123 552.581C600.143 536.471 617.129 556.94 637.129 557.942C654.653 559.441 640.624 570.897 637.129 570.441C614.653 567.506 591.153 562.506 582.659 551.934C574.153 540.362 575.153 538.506 574.153 532.006C545.516 561.992 411.016 590.992 407.016 549.872L378.104 549.872C362.516 549.872 353.016 547.046 320.516 547.046L298.064 547.046C299.023 570.441 251.531 572.812 237.547 567.545C80.5909 508.924 85.5234 401.941 128.523 380.941C126.065 360.294 124.091 362.364 114.045 372.894L113.523 373.441C121.023 340.441 122.523 341.441 109.023 357.441C109.023 327.441 156.523 261.441 175.023 218.441C202.023 126.941 226.023 123.848 234.523 116.941C238.523 113.691 270.023 95.9414 287.523 91.4414C292.523 44.4414 326.351 22.0124 348.938 13.3066C343.851 21.0125 342.351 21.0126 356.351 11.7536C354.351 17.0125 348.814 23.6502 364.233 11.7535C365.351 20.0125 359.72 17.4053 373.351 10.0126Z" fill="#AFBF41" stroke="#AFBF41" stroke-width="2" stroke-linecap="round"/>
<path d="M325.027 549.992C296.031 573.492 303.03 551.991 313.029 544.991L330.031 535.992C330.031 538.992 329.03 545.992 325.027 549.992Z" fill="#AFBF41"/>
<path d="M340.036 554.989C319.033 578.984 321.035 561.986 329.033 551.488L332.531 541.984L339.031 532.484C339.58 535.434 345.531 543.984 340.036 554.989Z" fill="#AFBF41"/>
<path d="M357.529 550.485C342.527 576.983 338.03 561.485 346.526 548.485L350.523 540.485L356.523 531.984C357.071 534.933 361.027 538.714 357.529 550.485Z" fill="#AFBF41"/>
<path d="M372.531 546.981C357.528 573.479 358.031 554.98 363.155 542.647L367.152 534.648L373.152 526.147C373.7 529.096 376.029 535.21 372.531 546.981Z" fill="#AFBF41"/>
<path d="M319.235 208.066C319.39 208.141 319.567 208.155 319.732 208.103C319.896 208.05 320.033 207.936 320.112 207.784C320.191 207.632 320.208 207.455 320.157 207.29C320.107 207.125 319.993 206.987 319.844 206.903C319.844 206.903 319.844 206.903 319.844 206.903C317.73 205.714 315.74 204.549 313.749 203.339C295.963 192.479 278.303 178.203 273.304 157.927C268.335 137.687 276.173 116.667 283.925 97.2897C284.823 95.0922 285.715 92.9525 286.644 90.7587C286.711 90.6007 286.716 90.4223 286.655 90.2609C286.595 90.0996 286.473 89.969 286.318 89.8973C286.162 89.8257 285.984 89.8187 285.822 89.8776C285.66 89.9365 285.528 90.0566 285.452 90.2101C285.452 90.2101 285.452 90.2101 285.452 90.2101C284.388 92.3482 283.366 94.4377 282.344 96.5923C273.545 115.539 264.638 136.913 269.909 158.776C275.388 180.683 294.448 194.934 312.893 204.84C314.968 205.947 317.041 206.999 319.235 208.066Z" fill="#FAF8F2"/>
<path d="M424.372 211.528C424.227 211.62 424.051 211.654 423.882 211.62C423.713 211.586 423.565 211.488 423.469 211.346C423.373 211.204 423.337 211.029 423.369 210.86C423.401 210.69 423.499 210.541 423.638 210.44C425.635 209.005 427.537 207.591 429.401 206.158C446.283 193.088 462.37 177.261 467.662 156.687C473.085 136.06 464.75 114.673 454.493 96.0819C453.34 93.9812 452.165 91.9128 450.951 89.8321C450.865 89.684 450.837 89.5076 450.876 89.3398C450.916 89.1721 451.02 89.027 451.165 88.9362C451.31 88.8454 451.486 88.8159 451.654 88.8537C451.823 88.8916 451.969 88.994 452.064 89.1366C452.064 89.1366 452.064 89.1366 452.064 89.1366C453.408 91.1495 454.709 93.1584 455.985 95.2092C467.278 113.253 476.822 135.405 471.056 157.546C465.344 179.532 448.085 195.344 430.416 207.557C428.458 208.896 426.463 210.206 424.372 211.528Z" fill="#FAF8F2"/>
<path d="M315.914 171.044C316.005 171.08 316.107 171.081 316.199 171.045C316.29 171.008 316.364 170.937 316.403 170.847C316.442 170.757 316.443 170.655 316.408 170.563C316.372 170.471 316.302 170.397 316.213 170.356C316.213 170.356 316.213 170.356 316.213 170.356C314.833 169.711 313.525 169.005 312.239 168.214C300.587 161.102 293.868 148.107 291.74 134.911C289.614 121.661 291.367 107.526 297.964 95.658C298.702 94.3492 299.508 93.0693 300.374 91.8429C300.43 91.7628 300.455 91.6636 300.44 91.5661C300.426 91.4685 300.373 91.3809 300.295 91.3221C300.216 91.2634 300.118 91.2381 300.02 91.2516C299.922 91.2652 299.834 91.3167 299.773 91.3936C298.824 92.5917 297.935 93.8532 297.116 95.1516C289.771 106.941 287.56 121.553 289.767 135.236C291.93 148.858 299.394 162.372 311.742 169.067C313.1 169.814 314.474 170.464 315.914 171.044Z" fill="#FAF8F2"/>
<path d="M318.679 116.38C318.657 116.475 318.67 116.575 318.718 116.66C318.765 116.746 318.844 116.809 318.937 116.836C319.03 116.863 319.13 116.852 319.216 116.806C319.302 116.76 319.367 116.683 319.399 116.591C319.399 116.591 319.399 116.591 319.399 116.591C319.656 115.861 319.907 115.178 320.174 114.469C322.568 108.266 325.484 101.759 330.989 98.4147C336.519 95.0808 343.612 95.684 350.224 96.5307C350.984 96.6344 351.698 96.7368 352.462 96.855C352.558 96.8697 352.657 96.8495 352.738 96.7953C352.819 96.7411 352.876 96.6579 352.896 96.5633C352.916 96.4686 352.898 96.3696 352.845 96.2872C352.793 96.2048 352.71 96.1463 352.617 96.1211C352.617 96.1211 352.617 96.1211 352.617 96.1211C351.865 95.9202 351.16 95.7389 350.405 95.5599C343.882 94.0726 336.375 92.9043 329.956 96.7024C323.641 100.607 321.026 107.722 319.234 114.167C319.036 114.907 318.858 115.621 318.679 116.38Z" fill="#FAF8F2"/>
<path d="M416.11 112.012C416.142 112.103 416.141 112.204 416.104 112.295C416.066 112.385 415.995 112.456 415.906 112.494C415.817 112.531 415.717 112.532 415.626 112.496C415.535 112.46 415.462 112.391 415.419 112.304C415.419 112.304 415.419 112.304 415.419 112.304C415.098 111.65 414.788 111.045 414.453 110.408C411.515 104.858 407.769 99.3331 402.071 97.2072C396.395 95.0683 389.878 96.3408 383.79 97.9321C383.095 98.1187 382.437 98.3015 381.738 98.5048C381.645 98.5317 381.544 98.5247 381.457 98.4818C381.369 98.4388 381.302 98.364 381.27 98.273C381.237 98.182 381.242 98.0815 381.283 97.993C381.325 97.9044 381.398 97.8355 381.488 97.7979C381.488 97.7979 381.488 97.7979 381.488 97.7979C382.164 97.514 382.804 97.2539 383.484 96.993C389.42 94.7652 396.25 92.9247 402.782 95.3376C409.342 97.8308 412.993 104.127 415.35 109.994C415.622 110.674 415.862 111.319 416.11 112.012Z" fill="#FAF8F2"/>
<path d="M258.727 234.828C258.786 236.066 258.84 237.286 258.891 238.487C259.363 249.449 259.736 260.287 259.587 271.066C259.322 281.825 259.068 292.713 255.712 303.029C255.308 304.152 254.835 305.276 254.227 306.328C255.051 305.433 255.764 304.404 256.398 303.356C261.895 293.575 263.333 282.123 263.587 271.125C263.74 260.061 262.258 249.061 259.643 238.379C259.355 237.209 259.049 236.025 258.727 234.828Z" fill="#FAF8F2"/>
<path d="M215.29 296.788C219.912 299.012 224.521 301.28 229.056 303.66C255.484 315.886 273.211 338.411 290.144 361.487L290.157 361.504C301.624 375.67 314.93 386.826 327.678 398.727C337.024 407.507 347.509 416.3 354.228 425.74C355.836 428.377 356.958 430.64 357.281 433.32C357.477 436.346 358.764 440.881 360.526 443.777C368.754 457.696 378.048 471.323 382.999 485.584C385.188 495.71 387.007 506.137 387.296 516.554C387.231 521.509 387.532 527.153 384.022 531.025C387.986 527.482 388.286 521.615 388.815 516.598C389.513 505.962 388.554 495.339 387.065 484.809C382.652 468.284 374.039 454.56 366.57 440.577C365.166 437.776 364.653 435.91 364.421 432.445C364.107 428.599 362.387 424.864 360.655 421.907C352.508 409.898 342.628 401.9 333.088 392.834C320.356 380.981 306.623 369.705 295.727 357.143L295.74 357.159C278.21 334.799 257.31 311.899 229.699 302.282C224.934 300.325 220.118 298.52 215.29 296.788Z" fill="#FAF8F2"/>
<path d="M266.214 492.148C265.189 491.432 264.181 490.61 263.236 489.77C254.884 481.984 248.066 472.763 240.436 464.189C232.851 455.604 224.975 446.971 215.485 440.24C214.41 439.495 213.319 438.797 212.227 438.176C213.164 439.014 214.087 439.904 214.996 440.822C222.935 449.07 229.813 458.208 237.425 466.823C245.036 475.377 252.89 484.135 262.787 490.383C263.892 491.044 265.06 491.665 266.214 492.148Z" fill="#FAF8F2"/>
<path d="M233.749 550.664C233.544 550.06 233.357 549.464 233.187 548.877C231.6 543.486 231.2 537.955 232.16 532.62C233.117 527.305 235.278 522.127 238.533 517.609C238.909 517.106 239.298 516.61 239.727 516.176C239.213 516.507 238.723 516.923 238.251 517.354C234.112 521.225 231.207 526.566 230.191 532.271C229.147 537.995 230.212 543.991 232.834 549.018C233.118 549.566 233.423 550.115 233.749 550.664Z" fill="#FAF8F2"/>
<path d="M260.07 542.953C260.761 543.124 261.442 543.283 262.115 543.432C268.256 544.798 274.331 545.474 280.415 545.496C286.499 545.506 292.588 544.932 298.706 543.521C299.382 543.361 300.072 543.183 300.727 542.996C300.155 543.365 299.529 543.723 298.907 544.054C293.269 547.026 286.837 548.516 280.404 548.496C273.967 548.481 267.562 546.886 261.921 543.968C261.302 543.648 260.686 543.31 260.07 542.953Z" fill="#FAF8F2"/>
<path d="M258.437 557.539C259.097 557.65 259.745 557.752 260.381 557.845C266.197 558.713 271.895 559.133 277.546 558.872C283.189 558.613 288.787 557.651 294.36 555.78C294.98 555.579 295.61 555.352 296.227 555.176C295.697 555.532 295.158 555.926 294.612 556.292C289.709 559.657 283.714 561.608 277.685 561.868C271.637 562.154 265.618 560.831 260.22 558.392C259.629 558.124 259.035 557.84 258.437 557.539Z" fill="#FAF8F2"/>
<path d="M357.532 450.804C357.103 451.577 356.666 452.308 356.208 453.029C352.08 459.594 346.246 464.549 339.522 467.746C332.796 470.92 325.315 472.786 317.611 472.938C316.776 472.931 315.88 472.903 315.062 472.719C315.818 473.094 316.715 473.318 317.549 473.504C325.296 474.994 333.553 473.893 340.821 470.45C348.107 467.032 354.038 460.681 356.718 453.283C357.021 452.47 357.288 451.654 357.532 450.804Z" fill="#FAF8F2"/>
<path d="M659.492 510.52C658.787 511.348 658.062 512.131 657.301 512.895C650.442 519.758 641.577 523.965 632.435 526.688C623.254 529.333 613.632 530.897 603.973 530.563C602.901 530.479 601.785 530.421 600.829 530.019C601.734 530.545 602.858 530.736 603.927 530.94C613.612 532.365 623.575 531.326 633.004 528.605C642.381 525.836 651.468 520.837 657.585 513.148C658.263 512.296 658.894 511.428 659.492 510.52Z" fill="#FAF8F2"/>
<path d="M682.492 537.52C683.435 537.308 684.409 537.165 685.368 537.084C694.123 536.512 702.481 539.611 710.409 542.99C718.304 546.538 726.129 550.592 733.024 555.923C733.74 556.534 734.547 557.197 734.992 558.02C734.665 557.131 733.928 556.353 733.285 555.646C726.999 549.411 719.276 544.779 711.212 541.158C703.151 537.702 694.141 535.02 685.312 536.708C684.355 536.91 683.397 537.181 682.492 537.52Z" fill="#FAF8F2"/>
<path d="M285.181 502.19C284.079 500.366 281.977 499.404 280.131 498.438C270.822 494.115 259.718 492.721 249.432 496.261L249.369 496.287C241.077 499.526 233.163 503.803 226.262 509.68C210.937 520.814 202.972 548.507 220.568 560.748C222.284 562.045 224.096 563.103 226.023 563.984C224.258 562.812 222.658 561.508 221.193 560.032C206.799 546 215.676 524.23 229.51 513.481C235.895 508.042 243.216 503.734 250.993 500.092L250.93 500.118C259.696 496.405 270.208 496.434 279.776 499.319C281.687 499.993 283.836 500.604 285.181 502.19Z" fill="#FAF8F2"/>
<path d="M264.539 511.504C264.402 511.322 264.275 511.146 264.153 510.972C263.027 509.433 262.06 507.661 262.489 506.73C262.819 505.712 264.62 504.81 266.414 504.209C266.622 504.139 266.823 504.071 267.039 504.004C266.823 503.937 266.616 503.879 266.396 503.829C264.558 503.453 261.868 503.384 260.612 506.041C259.827 509.002 262.238 510.524 263.917 511.27C264.118 511.353 264.324 511.43 264.539 511.504Z" fill="#FAF8F2"/>
<path d="M262.547 512.501C263.04 512.979 263.6 513.436 264.181 513.862C269.465 517.575 275.666 519.581 281.725 521.261C287.801 522.985 294.094 523.731 300.012 525.596C300.629 525.845 301.302 526.115 301.723 526.673C301.474 526.002 300.845 525.514 300.286 525.096C294.746 521.626 288.522 520.076 282.506 518.365C276.46 516.685 270.318 515.546 264.458 513.364C263.804 513.103 263.157 512.817 262.547 512.501Z" fill="#FAF8F2"/>
<path d="M301.724 526.675C301.811 527.017 301.578 527.22 301.336 527.381C301.102 527.526 300.808 527.645 300.528 527.735C295.156 528.994 289.488 528.961 284.025 529.293C278.527 529.471 273.057 529.866 267.546 528.707C266.942 528.567 266.319 528.387 265.725 528.175C266.178 528.613 266.703 529.03 267.234 529.4C272.231 532.71 278.426 533.501 284.201 533.289C289.984 532.94 295.92 531.851 300.903 528.396C301.156 528.184 301.424 527.935 301.613 527.656C301.821 527.374 301.956 526.948 301.724 526.675Z" fill="#FAF8F2"/>
<path d="M285.049 502.003C285.173 502.48 285.239 502.928 285.254 503.376C285.235 507.584 280.587 508.554 276.986 509.543C273.148 510.418 269.143 510.983 264.954 511.03C264.493 511.032 264.012 511.021 263.546 511.002C263.961 511.215 264.407 511.413 264.845 511.59C268.865 513.165 273.385 513.451 277.677 512.463C279.821 511.945 281.952 511.112 283.772 509.604C285.601 508.222 286.894 505.328 285.808 503.244C285.606 502.789 285.352 502.391 285.049 502.003Z" fill="#FAF8F2"/>
<path d="M473.969 553.164C474.175 552.56 474.362 551.964 474.532 551.377C476.119 545.986 476.519 540.455 475.558 535.12C474.602 529.805 472.441 524.627 469.186 520.109C468.81 519.606 468.42 519.11 467.992 518.676C468.506 519.007 468.996 519.423 469.468 519.854C473.607 523.725 476.512 529.066 477.528 534.771C478.572 540.495 477.507 546.491 474.884 551.518C474.601 552.066 474.296 552.615 473.969 553.164Z" fill="#FAF8F2"/>
<path d="M436.482 512.039C436.6 511.83 436.706 511.635 436.82 511.43C437.773 509.685 438.881 507.556 437.812 506.628C436.69 505.527 434.559 504.943 432.649 504.242C432.437 504.167 432.218 504.09 431.992 504.012C432.23 503.991 432.463 503.973 432.689 503.96C434.756 503.922 436.985 503.856 438.911 505.607C439.929 506.581 439.752 508.309 439.172 509.218C438.615 510.211 437.851 510.95 437.039 511.613C436.854 511.763 436.675 511.896 436.482 512.039Z" fill="#FAF8F2"/>
<path d="M436.475 512.036C433.723 513.039 430.74 513.373 427.797 513.501C423.784 513.639 419.736 513.344 415.767 512.36C413.799 511.846 411.818 511.198 410.003 509.926C409.117 509.285 408.237 508.44 407.781 507.229C407.307 506.015 407.519 504.597 408.035 503.54L407.974 503.69C412.49 495.362 421.592 494.432 429.204 492.941C437.101 491.89 445.345 492.031 453.109 494.914L452.995 494.875C455.75 495.719 458.42 496.708 461.022 497.857C485.556 507.164 505.45 540.661 486.711 563.235C484.772 565.475 482.507 567.401 480.023 568.98C482.374 567.209 484.46 565.138 486.193 562.818C502.451 539.797 482.726 510.125 459.608 501.059C457.134 499.966 454.593 499.014 451.966 498.187L451.853 498.147C438.48 493.688 419.084 493.989 409.997 504.327L409.936 504.478C408.079 507.416 412.701 509.914 416.167 510.959C419.888 512.127 423.845 512.691 427.795 512.836C430.699 512.917 433.657 512.814 436.475 512.036Z" fill="#FAF8F2"/>
<path d="M439.991 526.029C438.438 526.647 436.85 527.198 435.241 527.684C420.954 531.284 403.933 533.969 390.825 522.816C390.192 521.947 389.698 520.916 389.513 519.774L389.492 519.528C389.439 517.95 390.698 516.648 391.628 516.154C392.604 515.587 393.591 515.299 394.51 515.075C396.383 514.64 398.198 514.475 400.009 514.358C403.623 514.144 407.17 514.192 410.717 514.246C417.785 514.313 424.89 514.796 431.806 513.654C433.433 513.342 435.064 512.916 436.483 512.037C435.177 513.084 433.559 513.714 431.942 514.208C425.029 516.13 417.793 516.227 410.745 516.565C407.208 516.712 403.685 516.824 400.224 517.14C398.499 517.304 396.781 517.515 395.211 517.915C393.646 518.257 392.268 519.155 392.484 519.529L392.463 519.283C392.567 519.89 392.835 520.479 393.251 521.052C403.417 529.894 420.851 529.404 435.106 527.13C436.743 526.823 438.375 526.457 439.991 526.029Z" fill="#FAF8F2"/>
<path d="M400.48 528.033C399.402 528.604 398.455 529.173 397.519 529.822C395.519 531.181 393.383 533.345 393.882 535.089C394.324 536.811 396.619 538.111 398.807 538.989C403.354 540.744 408.332 541.468 413.366 541.992C423.387 542.954 433.672 542.778 444.005 542.159C445.143 542.09 446.297 542.012 447.468 541.924C446.347 542.274 445.235 542.602 444.131 542.908C434.103 545.667 423.497 546.983 412.972 545.973C407.673 545.413 402.431 544.41 397.46 541.88C395.124 540.548 392.206 538.933 391.72 535.355C391.733 531.617 394.934 530.185 397.153 529.156C398.241 528.697 399.304 528.356 400.48 528.033Z" fill="#FAF8F2"/>
<path d="M452.858 492.44C454.322 492.551 455.785 491.911 457.107 491.332C469.004 485.083 478.68 476.116 488.516 467.586C498.329 459.028 507.451 449.705 518.109 442.346C519.351 441.539 520.601 440.8 521.877 440.176C520.49 440.485 519.082 440.946 517.674 441.501C505.393 446.668 495.027 455.269 485.197 463.846C475.29 472.445 466.65 482.272 456.626 490.512C455.489 491.326 454.283 492.212 452.858 492.44Z" fill="#FAF8F2"/>
<path d="M308.061 548.166C312.824 545.653 315.957 540.428 316.276 534.981C317.08 517.869 305.615 502.851 303.714 487.676C304.475 479.9 297.279 473.867 291.496 471.133C285.503 467.979 279.627 465.187 274.407 461.399C260.473 451.312 245.281 442.506 229.742 435.468C228.842 435.024 227.959 434.582 227.092 434.141C207.039 424.279 189.539 410.421 176.707 391.942C175.737 390.655 175.006 389.712 174.01 388.532C173.646 388.104 172.961 387.33 172.49 386.896C172.293 386.708 172.103 386.541 171.906 386.388C171.807 386.312 171.706 386.238 171.599 386.168C171.535 386.127 171.525 386.119 171.401 386.046C171.286 385.979 171.161 385.914 171.016 385.855C170.731 385.74 170.349 385.621 169.821 385.675C169.612 385.69 169.146 385.814 168.831 386.042C168.502 386.267 168.274 386.562 168.136 386.818C167.999 387.068 167.925 387.338 167.897 387.474C167.873 387.584 167.859 387.686 167.849 387.783C167.829 387.976 167.828 388.148 167.835 388.313C168.39 391.985 169.498 394.094 170.399 396.831C171.313 399.424 172.291 402.077 172.811 404.546C172.933 405.128 172.994 405.816 172.958 406.009C172.957 406.047 172.946 406.005 173.061 405.848C173.156 405.699 173.48 405.49 173.696 405.475C173.926 405.453 173.916 405.489 173.902 405.481C173.879 405.478 173.791 405.45 173.673 405.39C173.369 405.255 172.719 404.782 172.311 404.441C172.072 404.244 171.811 404.018 171.53 403.762C171.297 403.551 171.089 403.358 170.851 403.131C163.144 395.324 156.503 386.485 149.596 377.687L149.547 377.627C147.155 374.981 143.347 374.2 140.098 374.642C134.657 375.36 129.804 377.785 125.057 380.176C129.932 378.083 134.963 375.97 140.18 375.588C143.32 375.357 146.525 376.259 148.452 378.621L148.403 378.562C154.888 387.755 160.985 396.774 168.725 405.261C168.971 405.516 169.188 405.736 169.435 405.98C169.737 406.274 170.023 406.542 170.295 406.785C170.759 407.205 171.528 407.832 172.185 408.19C172.439 408.329 172.713 408.454 173.001 408.542C173.146 408.586 173.297 408.622 173.458 408.646C173.498 408.652 173.536 408.657 173.581 408.661C173.645 408.667 173.71 408.671 173.777 408.673C173.91 408.676 174.049 408.668 174.191 408.647C175.486 408.49 176.082 407.16 176.144 406.642C176.345 405.479 176.189 404.746 176.085 403.968C175.562 400.987 174.657 398.344 173.821 395.674C173.022 393.104 171.924 390.081 171.706 388.182C171.706 388.158 171.71 388.16 171.707 388.203C171.705 388.225 171.701 388.258 171.692 388.305C171.681 388.358 171.646 388.502 171.553 388.675C171.461 388.848 171.288 389.078 171.026 389.257C170.775 389.44 170.403 389.537 170.247 389.548C169.849 389.588 169.621 389.498 169.515 389.458C169.404 389.411 169.414 389.409 169.418 389.416C169.425 389.421 169.445 389.437 169.475 389.462C169.535 389.513 169.632 389.6 169.754 389.722C170.035 390 170.622 390.682 170.935 391.08C171.806 392.17 172.486 393.104 173.396 394.371C185.793 413.403 204.431 428.655 224.826 438.598C225.712 439.048 226.615 439.5 227.534 439.952C243.209 447.045 257.807 455.309 271.87 465.021C282.235 473.354 300.399 474.476 300.454 487.676C303.43 505.165 315.183 518.183 315.328 534.924C315.306 540.145 312.666 545.333 308.061 548.166Z" fill="#FAF8F2"/>
<path d="M523.5 417.02C527.168 415.794 530.85 414.803 534.589 414.018C566.846 406.928 609.14 417.246 616.635 449.439C622.074 481.547 595.436 511.139 571.933 534.583C569.259 537.188 566.447 539.835 563.492 542.521C566.779 540.252 569.921 537.991 572.921 535.738C598.95 515.261 630.241 487.137 624.456 447.759C614.096 407.672 565.359 401.324 534.184 412.552C530.514 413.817 526.965 415.301 523.5 417.02Z" fill="#FAF8F2"/>
<path d="M294.227 295.676C295.962 297.601 297.941 299.313 300.088 300.803C319.228 313.266 343.533 310.488 364.727 309.671C366.039 309.674 367.314 309.694 368.593 309.733C381.175 309.746 394.012 314.301 407.307 312.672L407.376 312.667C417.675 311.29 428.289 309.003 436.851 302.804C438.952 301.225 440.833 299.364 442.227 297.176C440.615 299.209 438.603 300.832 436.423 302.176C427.581 307.401 417.215 308.852 407.077 309.685L407.146 309.679C394.347 310.62 382.108 305.821 368.715 305.735C367.393 305.695 366.077 305.678 364.727 305.681C342.767 306.615 320.21 310.48 300.493 300.16C298.262 298.9 296.151 297.412 294.227 295.676Z" fill="#FAF8F2"/>
<path d="M523.872 404.18C523.572 401.203 523.288 398.24 523.001 395.28C521.9 382.79 520.169 370.751 516.575 359.039C513.138 345.482 505.076 335.007 496.936 322.901C494.508 319.246 492.184 315.58 489.92 311.797C481.764 298.118 474.928 280.304 481.429 263.925C483.244 258.422 484.096 251.439 485.113 245.022C485.55 242.082 485.966 239.134 486.371 236.175C486.566 239.155 486.719 242.134 486.82 245.118C486.945 251.826 487.369 258.128 486.055 265.423C482.475 279.914 489.399 294.473 497.412 307.164C499.73 310.793 502.047 314.331 504.433 317.921C512.143 329.314 521.147 342.638 523.308 357.429C525.858 369.911 525.886 382.871 524.711 395.27C524.458 398.241 524.172 401.202 523.872 404.18Z" fill="#FAF8F2"/>
<path d="M323.658 174.346C328.24 161.118 349.236 130.977 370.193 138.909C385.566 129.382 417.694 167.994 418.781 181.213C425.412 261.842 301.685 237.775 323.658 174.346Z" fill="#FAF8F2" stroke="#FAF8F2" stroke-width="2"/>
<path d="M378.375 120.005C384.875 109.5 398.875 110 403.375 120.005C399.375 128.5 385.875 131 378.375 120.005Z" fill="#FAF8F2" stroke="#FAF8F2" stroke-width="0.5"/>
<path d="M372.841 156.596C371.371 152.601 381.925 146.765 384.795 150.001C387.102 152.602 373.933 160.164 372.841 156.596Z" fill="#AFBF41" stroke="#AFBF41"/>
<path d="M364.273 156.092C365.683 152.028 355.076 146.241 352.26 149.553C349.996 152.214 363.235 159.72 364.273 156.092Z" fill="#AFBF41" stroke="#AFBF41"/>
<circle cx="392.875" cy="120" r="5" fill="#AFBF41"/>
<path d="M357.023 119.676C350.523 109.172 336.523 109.672 332.023 119.676C336.023 128.172 349.523 130.672 357.023 119.676Z" fill="#FAF8F2" stroke="#FAF8F2" stroke-width="0.5"/>
<circle cx="5" cy="5" r="5" transform="matrix(-1 0 0 1 350.023 114.984)" fill="#AFBF41"/>
<path d="M377.031 525.484C379.031 533.984 387.031 538.985 388.031 520.984C388.031 523.484 391.131 526.484 381.531 550.484H371.531C372.031 548.984 376.031 537.484 377.031 525.484Z" fill="#AFBF41" stroke="#AFBF41" stroke-width="0.25" stroke-miterlimit="1.74345" stroke-linecap="round"/>
<path d="M443.078 90.0211C389.547 26.4842 325.547 44.9842 291.828 102.536C318.812 27.0433 398.547 20.9818 443.078 90.0211Z" fill="#FAF8F2" stroke="#FAF8F2" stroke-width="2" stroke-linecap="round"/>
<path d="M404.029 186.483C388.531 204.48 348.031 198.98 335.531 187.484C358.531 199.98 385.031 201.48 404.029 186.483Z" fill="#AFBF41"/>
<path d="M404.029 186.483L404.218 186.646C404.303 186.549 404.299 186.403 404.21 186.31C404.12 186.217 403.975 186.207 403.874 186.287L404.029 186.483ZM335.531 187.484L335.65 187.264L335.362 187.668L335.531 187.484ZM404.029 186.483L403.84 186.32C396.166 195.231 382.265 198.355 368.666 197.794C361.875 197.514 355.179 196.314 349.404 194.47C343.625 192.625 338.788 190.14 335.7 187.3L335.531 187.484L335.362 187.668C338.524 190.576 343.437 193.09 349.252 194.947C355.071 196.805 361.812 198.011 368.646 198.294C382.297 198.857 396.394 195.732 404.218 186.646L404.029 186.483ZM404.029 186.483L403.874 186.287C384.981 201.201 358.597 199.731 335.65 187.264L335.531 187.484L335.412 187.704C358.466 200.229 385.081 201.759 404.184 186.68L404.029 186.483Z" fill="#AFBF41"/>
<path d="M364.841 33.1611C365.383 35.1305 365.491 36.7363 365.349 38.0449C367.241 36.9249 369.79 35.7662 373.056 34.8018L374.753 34.3008L373.569 35.6152C372.904 36.3543 372.288 36.9764 371.746 37.4893C373.612 36.7668 376.527 35.729 380.792 34.5049L382.425 34.0361L381.306 35.3145C380.397 36.3527 379.176 37.3558 378.151 38.1641C377.76 38.4729 377.404 38.7521 377.095 38.9971C377.17 38.9752 377.251 38.9536 377.334 38.9287C378.858 38.4734 381.503 37.5536 385.76 36.0156L386.43 35.7734V36.4854C386.43 37.111 386.414 37.6764 386.409 38.1338C386.404 38.6051 386.411 38.9697 386.449 39.2549C386.487 39.5431 386.551 39.6918 386.613 39.7715C386.662 39.8332 386.743 39.8968 386.944 39.9287C387.163 39.9632 387.488 39.9537 387.971 39.874C388.448 39.7952 389.049 39.6545 389.805 39.4492C391.318 39.038 393.398 38.3849 396.279 37.5078L397.5 37.1367L396.856 38.2383C395.771 40.0967 394.992 41.2947 394.576 42.1055C394.389 42.4717 394.321 42.6834 394.306 42.7949C394.442 42.8358 394.709 42.8581 395.191 42.8311C395.672 42.8041 396.296 42.7352 397.095 42.6426C398.685 42.458 400.914 42.1836 403.892 41.9873L405.791 41.8623L404.199 42.9053C402.841 43.7943 401.632 44.6469 400.8 45.3584C400.381 45.7163 400.08 46.0205 399.902 46.2607C399.841 46.3432 399.805 46.4108 399.781 46.46C399.833 46.4751 399.908 46.493 400.015 46.5039C400.358 46.5391 400.9 46.5122 401.692 46.3926C403.269 46.1547 405.713 45.5659 409.282 44.5068L410.414 44.1719L409.868 45.2178C408.993 46.8963 408.342 48.2065 407.885 49.2422C409.062 49.2908 410.362 49.4175 411.779 49.6455L413.526 49.9268L411.891 50.6016C411.271 50.8573 410.702 51.0679 410.192 51.2402C411.875 51.3816 414.351 51.6579 417.763 52.2334L419.437 52.5156L417.876 53.1855C416.801 53.6468 415.502 53.9658 414.43 54.207C414.18 54.2632 413.946 54.3181 413.728 54.3662C415.079 54.5693 417.372 54.824 420.979 55.1855L421.688 55.2568L421.381 55.9004C421.153 56.3755 420.935 56.801 420.766 57.1445C420.59 57.5007 420.465 57.7756 420.392 58C420.318 58.2267 420.317 58.3461 420.331 58.4092C420.34 58.4502 420.364 58.5135 420.493 58.6025C420.636 58.701 420.877 58.8085 421.27 58.9229C421.657 59.0356 422.161 59.146 422.809 59.2646C424.105 59.5023 425.92 59.7635 428.429 60.1455L429.69 60.3379L428.634 61.0537C427.129 62.0736 426.108 62.6952 425.5 63.1582C425.288 63.32 425.169 63.4349 425.105 63.5078C425.203 63.5764 425.381 63.6719 425.685 63.7969C426.057 63.9502 426.555 64.1245 427.195 64.3447C428.47 64.7827 430.264 65.3859 432.598 66.3203L434.365 67.0273L432.479 67.2793C431.125 67.4604 429.901 67.6689 429.016 67.9053C428.57 68.0243 428.237 68.1432 428.022 68.2568C427.997 68.2705 427.975 68.2868 427.955 68.2988C427.975 68.3126 427.997 68.3287 428.023 68.3447C428.263 68.4909 428.675 68.6666 429.318 68.8633C430.596 69.2542 432.663 69.6959 435.758 70.1895L436.923 70.375L435.979 71.083C433.777 72.7345 432.333 73.5984 431.464 74.0869C431.289 74.1852 431.145 74.2647 431.025 74.3301C431.249 74.4765 431.528 74.6751 431.843 74.958C432.6 75.6385 433.542 76.7748 434.488 78.7676C434.767 79.3539 434.964 79.7939 435.079 80.0938C435.134 80.2381 435.18 80.3783 435.202 80.4951C435.212 80.546 435.227 80.6464 435.207 80.7568C435.196 80.816 435.17 80.912 435.095 81.0039C435.01 81.1075 434.891 81.1716 434.765 81.1904C434.564 81.2203 434.413 81.1274 434.377 81.1055C434.316 81.068 434.262 81.0225 434.22 80.9844C434.134 80.9059 434.036 80.7995 433.933 80.6797C433.723 80.4362 433.443 80.0825 433.107 79.6445C431.756 77.882 429.382 74.6285 426.334 70.9092C423.287 67.1917 419.581 63.0271 415.585 59.4648C415.392 59.2927 415.197 59.1232 415.003 58.9541C414.759 58.8199 414.49 58.6708 414.198 58.5078C411.674 57.0974 407.367 54.6292 402.157 51.9766C401.912 52.0216 401.689 52.0564 401.487 52.0762C400.993 52.1244 400.557 52.1086 400.25 51.9814C400.093 51.9162 399.889 51.7871 399.799 51.542C399.704 51.2842 399.787 51.0483 399.883 50.8955C399.892 50.8808 399.903 50.867 399.913 50.8525C394.626 48.2443 388.616 45.5833 382.693 43.6826C376.302 41.6317 370.069 40.4822 364.975 41.1816C364.358 41.7177 363.814 42.1231 363.353 42.417C363.34 42.4295 363.329 42.4429 363.317 42.4551C363.543 42.4475 363.816 42.4387 364.144 42.4277C366.013 42.3649 369.448 42.2819 375.382 42.5391C376.15 42.5723 376.69 42.5991 377.018 42.6221C377.173 42.633 377.307 42.6444 377.394 42.6602C377.416 42.6642 377.453 42.6717 377.492 42.6846C377.511 42.6909 377.547 42.7037 377.587 42.7256C377.615 42.7411 377.715 42.7975 377.784 42.9189C377.813 42.979 377.848 43.117 377.85 43.1934C377.841 43.2671 377.797 43.3948 377.766 43.4482C377.695 43.5535 377.604 43.6023 377.578 43.6162C377.513 43.6505 377.452 43.6649 377.435 43.6689C377.349 43.6889 377.219 43.7018 377.094 43.7119C376.952 43.7233 376.766 43.735 376.543 43.748C376.096 43.774 375.479 43.8046 374.722 43.8447C371.687 44.0056 366.33 44.315 360.093 45.041C353.853 45.7673 346.745 46.9093 340.212 48.7334C333.727 50.5441 327.863 53.0145 323.965 56.3721C323.713 57.2449 323.454 57.9354 323.202 58.4541C323.008 58.8543 322.8 59.1884 322.581 59.4219C322.597 59.4502 322.611 59.4779 322.626 59.5039C322.813 59.8321 322.927 59.9677 323.04 60.0371C323.135 60.095 323.301 60.1478 323.698 60.0967C324.101 60.0447 324.669 59.8961 325.513 59.626C327.204 59.0845 329.835 58.113 334.179 56.6387C334.757 56.4425 335.194 56.3154 335.469 56.2793C335.54 56.27 335.624 56.2643 335.708 56.2715C335.773 56.2771 335.944 56.2968 336.085 56.4336C336.273 56.6165 336.265 56.8512 336.224 56.9893C336.189 57.1052 336.124 57.1932 336.084 57.2422C335.997 57.3489 335.873 57.4587 335.743 57.5635C335.606 57.6738 335.437 57.8012 335.239 57.9404C334.844 58.219 334.319 58.564 333.691 58.9688C331.17 60.5933 326.911 63.2054 322.189 66.4297C317.469 69.653 312.31 73.4743 308.013 77.4941C303.702 81.5261 300.316 85.707 299.061 89.6436L299.047 89.6875L299.024 89.7285C298.517 90.6697 298.086 91.4177 297.724 91.9814C297.369 92.5331 297.055 92.949 296.776 93.1885C296.643 93.3034 296.455 93.4328 296.227 93.46C295.939 93.494 295.707 93.3566 295.566 93.1611C295.449 92.9976 295.394 92.7968 295.363 92.6221C295.331 92.4364 295.317 92.2199 295.313 91.9824C295.301 91.0432 295.473 89.5299 295.741 87.5957C296.011 85.6524 296.385 83.2351 296.788 80.4785L297.057 78.6445L297.747 80.3643C298.225 81.5552 298.571 82.5731 298.828 83.3799C298.847 83.1647 298.864 82.9318 298.888 82.6836C299.043 81.0204 299.308 78.6064 299.816 75.3252L300.054 73.791L300.757 75.1758C301.271 76.189 301.718 77.388 302.099 78.3164C302.293 78.7906 302.468 79.1894 302.628 79.4824C302.674 79.5672 302.718 79.6379 302.757 79.6963C302.861 79.4621 302.983 79.0642 303.109 78.4375C303.396 77.0112 303.684 74.5883 303.994 70.7617L304.065 69.8994L304.777 70.3906C305.647 70.9903 306.276 71.5489 306.727 72.0205C306.718 70.5934 306.91 68.1874 307.831 64.4395L308.118 63.2715L308.743 64.2979C309.284 65.1851 309.716 65.8748 310.067 66.3896C310.411 66.894 310.656 67.1953 310.828 67.3525C310.861 67.2774 310.897 67.1775 310.936 67.0479C311.325 65.7263 311.719 62.1451 313.571 57.7891L314.259 56.1729L314.525 57.9092C314.744 59.336 315.067 60.4805 315.411 61.2256C315.585 61.6019 315.749 61.8416 315.882 61.9688C315.937 62.0216 315.973 62.0426 315.992 62.0508C316.022 62.0309 316.109 61.9593 316.224 61.7314C316.365 61.4519 316.508 61.016 316.634 60.3887C316.884 59.1376 317.048 57.2177 317.048 54.4824L317.047 53.4893L317.846 54.0811C319.46 55.2793 320.489 56.3362 321.192 57.2305C321.692 54.9663 323.407 51.1415 327.284 46.624L328.436 45.2822L328.157 47.0293C327.924 48.4878 327.648 49.686 327.415 50.5957C327.655 50.2812 327.931 49.9175 328.249 49.5088C329.46 47.9526 331.261 45.7072 333.875 42.708L334.826 41.6162L334.751 43.0625C334.69 44.2339 334.44 45.5632 334.284 46.5957C334.204 47.1258 334.149 47.571 334.145 47.9062C334.143 48.0172 334.149 48.1061 334.157 48.1758C334.186 48.1604 334.221 48.1443 334.259 48.1201C334.549 47.9346 334.979 47.5567 335.592 46.9082C336.809 45.62 338.65 43.368 341.385 39.7676L341.81 39.208L342.199 39.793C342.868 40.7967 343.23 41.6452 343.43 42.3076C344.231 40.9714 345.933 38.6131 349.591 35.0215L350.39 34.2373L350.44 35.3555C350.538 37.4921 350.444 38.9777 350.397 39.875C350.394 39.9382 350.393 39.9976 350.391 40.0527C350.414 40.0299 350.44 40.007 350.465 39.9824C350.775 39.6789 351.2 39.2488 351.751 38.7236C352.86 37.6673 354.496 36.2047 356.896 34.417L358.422 33.2803L357.651 35.0205C356.998 36.4972 356.526 37.8165 356.327 38.7861C356.227 39.2759 356.206 39.6344 356.24 39.8652C356.257 39.9777 356.283 40.0337 356.297 40.0547C356.3 40.0592 356.303 40.0613 356.304 40.0625L356.354 40.0674C356.432 40.0665 356.602 40.0372 356.906 39.8809C357.29 39.6834 357.799 39.3277 358.452 38.7695C359.755 37.6554 361.561 35.7946 363.979 32.9688L364.591 32.2539L364.841 33.1611Z" fill="#FAF8F2"/>
<path d="M288.025 97.9841C289.229 98.1336 312.526 73.9868 327.026 65.9868C326.483 66.986 296.528 92.9858 292.028 104.486C291.695 104.652 288.942 98.7982 288.025 97.9841Z" fill="#AFBF41" stroke="#AFBF41" stroke-miterlimit="1.74345" stroke-linecap="round"/>
<path d="M446.03 85.4803C439.102 82.5145 395.91 53.5754 412.875 65.6025C412.068 65.388 432.179 84.6243 440.948 93.335C441.297 93.4671 445.201 86.3829 446.03 85.4803Z" fill="#AFBF41"/>
<path d="M413.411 65.9822C395.027 52.9842 439.031 82.4844 446.03 85.4803C445.201 86.3829 441.297 93.4671 440.948 93.335C431.53 83.9793 409.028 62.4819 413.411 65.9822Z" stroke="#AFBF41" stroke-miterlimit="1.74345" stroke-linecap="round"/>
<path d="M422.939 167.895C422.851 167.939 422.749 167.948 422.655 167.919C422.561 167.89 422.482 167.825 422.436 167.738C422.39 167.651 422.38 167.55 422.409 167.455C422.437 167.361 422.502 167.281 422.587 167.233C422.587 167.233 422.587 167.233 422.587 167.233C424.019 166.425 425.334 165.627 426.689 164.746C438.755 157.121 448.08 144.812 449.723 130.643C451.538 116.556 447.121 102.137 439.665 89.9708C438.829 88.6151 437.945 87.2786 437.029 85.9838C436.972 85.9037 436.947 85.8044 436.962 85.7069C436.976 85.6093 437.028 85.5216 437.107 85.4628C437.186 85.404 437.284 85.3787 437.382 85.3923C437.48 85.4059 437.568 85.4574 437.629 85.5345C437.629 85.5345 437.629 85.5345 437.629 85.5345C438.623 86.7928 439.583 88.0999 440.493 89.4329C448.616 101.384 453.6 116.173 451.706 130.904C450.007 145.746 439.782 158.486 427.208 165.586C425.794 166.416 424.424 167.153 422.939 167.895Z" fill="#FAF8F2"/>
<path d="M447.497 556.023C446.558 556.061 445.629 556.087 444.701 556.102C436.339 556.227 428.191 555.593 420.204 554.212C412.695 552.522 402.857 551.604 399.521 544.61C399.377 543.777 399.557 542.87 399.997 542.023C399.345 542.711 398.856 543.599 398.761 544.626C398.859 549.588 403.611 552.238 407.236 554.223C411.116 556.179 415.31 557.408 419.513 558.152C427.961 559.62 436.673 559.137 444.812 556.854C445.714 556.6 446.607 556.323 447.497 556.023Z" fill="#FAF8F2"/>
<path d="M373.086 494.047C377.086 505.047 376.591 527.547 381.086 530.547C387.086 534.551 388.041 522.972 387.562 500.52M330.102 510.065C335.594 528.553 334.086 553.555 306.107 561.073C298.586 557.055 312.099 545.072 310.098 547.07" stroke="#FAF8F2" stroke-width="1.5" stroke-linecap="round"/>
<path d="M361.305 505.065C372.101 538.731 350.587 564.683 364.07 559.219C376.578 549.551 378.914 521.163 373.078 494.047M361.3 505.064C372.368 538.736 350.586 565.051 364.07 559.223" stroke="#FAF8F2" stroke-width="1.5" stroke-linecap="round"/>
<path d="M346.585 507.054C358.585 541.054 333.078 567.054 346.023 564.453C361.079 558.049 368.079 523.056 361.087 505.059M346.593 507.055C358.593 541.055 334.131 565.713 344.078 564.616" stroke="#FAF8F2" stroke-width="1.5" stroke-linecap="round"/>
<path d="M324.115 566.24C316.264 563.608 343.071 544.39 330.094 510.06C343.071 544.39 316.26 563.611 324.115 566.24ZM324.115 566.24C338.207 569.14 352.686 534.256 346.586 507.051" stroke="#FAF8F2" stroke-width="1.5" stroke-linecap="round"/>
<path d="M249.256 804V694.909H294.746C302.914 694.909 309.75 696.063 315.254 698.371C320.794 700.68 324.949 703.911 327.719 708.066C330.524 712.221 331.927 717.033 331.927 722.501C331.927 726.656 331.057 730.367 329.317 733.634C327.577 736.866 325.18 739.547 322.126 741.678C319.072 743.808 315.538 745.3 311.526 746.152V747.217C315.929 747.43 319.995 748.62 323.724 750.786C327.488 752.952 330.506 755.971 332.779 759.842C335.052 763.677 336.188 768.222 336.188 773.478C336.188 779.337 334.697 784.575 331.714 789.192C328.731 793.773 324.416 797.395 318.77 800.058C313.124 802.686 306.27 804 298.209 804H249.256ZM275.624 782.746H291.923C297.641 782.746 301.849 781.663 304.548 779.497C307.282 777.331 308.649 774.312 308.649 770.442C308.649 767.636 307.992 765.222 306.678 763.197C305.364 761.138 303.5 759.558 301.085 758.457C298.67 757.32 295.776 756.752 292.403 756.752H275.624V782.746ZM275.624 739.76H290.219C293.095 739.76 295.652 739.281 297.889 738.322C300.126 737.363 301.866 735.978 303.109 734.167C304.388 732.356 305.027 730.172 305.027 727.615C305.027 723.957 303.731 721.081 301.138 718.986C298.546 716.891 295.048 715.843 290.645 715.843H275.624V739.76ZM401.653 768.684V722.182H427.648V804H402.825V788.766H401.973C400.162 793.773 397.072 797.75 392.705 800.697C388.372 803.609 383.134 805.065 376.991 805.065C371.415 805.065 366.515 803.787 362.289 801.23C358.063 798.673 354.778 795.104 352.435 790.523C350.091 785.907 348.901 780.509 348.866 774.33V722.182H374.913V769.217C374.949 773.656 376.121 777.153 378.429 779.71C380.737 782.267 383.88 783.545 387.857 783.545C390.45 783.545 392.776 782.977 394.835 781.841C396.93 780.669 398.582 778.982 399.789 776.781C401.032 774.543 401.653 771.844 401.653 768.684ZM474.11 805.172C468.073 805.172 462.586 803.609 457.65 800.484C452.714 797.359 448.773 792.672 445.825 786.422C442.878 780.172 441.404 772.413 441.404 763.144C441.404 753.521 442.931 745.602 445.985 739.387C449.039 733.173 453.034 728.574 457.97 725.591C462.942 722.608 468.286 721.116 474.003 721.116C478.3 721.116 481.976 721.862 485.03 723.354C488.084 724.81 490.605 726.692 492.594 729C494.582 731.308 496.091 733.705 497.121 736.191H497.654V694.909H523.702V804H497.92V790.737H497.121C496.02 793.258 494.458 795.619 492.434 797.821C490.41 800.023 487.871 801.798 484.817 803.148C481.798 804.497 478.229 805.172 474.11 805.172ZM483.165 784.877C486.326 784.877 489.025 783.989 491.262 782.214C493.499 780.403 495.221 777.864 496.429 774.597C497.636 771.33 498.24 767.494 498.24 763.091C498.24 758.616 497.636 754.763 496.429 751.532C495.257 748.3 493.535 745.815 491.262 744.075C489.025 742.335 486.326 741.464 483.165 741.464C479.934 741.464 477.199 742.352 474.962 744.128C472.725 745.903 471.02 748.407 469.849 751.638C468.712 754.87 468.144 758.687 468.144 763.091C468.144 767.494 468.73 771.33 469.902 774.597C471.074 777.864 472.76 780.403 474.962 782.214C477.199 783.989 479.934 784.877 483.165 784.877ZM540.174 804V722.182H566.222V804H540.174ZM553.225 712.647C549.567 712.647 546.424 711.44 543.797 709.025C541.169 706.575 539.855 703.627 539.855 700.183C539.855 696.773 541.169 693.862 543.797 691.447C546.424 688.996 549.567 687.771 553.225 687.771C556.918 687.771 560.061 688.996 562.653 691.447C565.281 693.862 566.595 696.773 566.595 700.183C566.595 703.627 565.281 706.575 562.653 709.025C560.061 711.44 556.918 712.647 553.225 712.647Z" fill="#AFBF41"/>
</g>
<defs>
<clipPath id="clip0_1049_1408">
<rect width="815" height="815" fill="white"/>
</clipPath>
</defs>
</svg>
