<svg width="815" height="605" viewBox="0 0 815 605" fill="none" xmlns="http://www.w3.org/2000/svg">
<g clip-path="url(#clip0_1062_171)">
<path d="M373.358 10.0165C370.389 20.1425 368.764 16.663 380.048 12.7229C375.358 18.5165 378.572 19.8355 391.672 10.9844C389.031 24.4453 383.531 11.7575 408.531 24.4453C430.081 35.382 444.859 58.0145 449.859 90.5145C527.859 126.015 530.859 140.015 550.859 188.015C554.718 197.277 552.218 204.819 582.718 251.917C597.615 274.921 583.734 289.423 621.734 333.423C597.234 327.923 598.234 319.923 621.734 355.923C604.734 348.423 604.234 338.423 621.734 375.923C640.734 422.423 619.234 432.423 657.234 512.923C710.63 529.996 746.615 549.495 734.46 556.475C728.625 566.49 707.129 555.586 693.124 553.65C664.131 552.585 648.631 551.085 637.131 552.585C600.151 536.475 617.137 556.944 637.137 557.946C654.661 559.445 640.632 570.901 637.137 570.445C614.661 567.51 591.161 562.51 582.667 551.938C574.161 540.366 575.161 538.51 574.161 532.01C545.523 561.996 411.023 590.996 407.023 549.875L378.112 549.875C362.523 549.875 353.023 547.05 320.523 547.05L298.072 547.05C299.031 570.445 251.538 572.816 237.554 567.549C80.5987 508.928 85.5313 401.945 128.531 380.945C126.073 360.298 124.099 362.368 114.053 372.898L113.531 373.445C121.031 340.445 122.531 341.445 109.031 357.445C109.031 327.445 156.531 261.445 175.031 218.445C202.031 126.945 226.031 123.852 234.531 116.945C238.531 113.695 270.031 95.9453 287.531 91.4453C292.531 44.4453 326.358 22.0163 348.946 13.3105C343.858 21.0164 342.358 21.0165 356.358 11.7575C354.358 17.0164 348.822 23.6542 364.24 11.7574C365.358 20.0164 359.728 17.4092 373.358 10.0165Z" fill="#514F48" stroke="#514F48" stroke-width="2" stroke-linecap="round"/>
<path d="M325.027 549.992C296.031 573.492 303.03 551.991 313.029 544.991L330.031 535.992C330.031 538.992 329.03 545.992 325.027 549.992Z" fill="#514F48"/>
<path d="M340.036 554.993C319.033 578.988 321.035 561.99 329.033 551.492L332.531 541.988L339.031 532.488C339.58 535.438 345.531 543.988 340.036 554.993Z" fill="#514F48"/>
<path d="M357.537 550.489C342.534 576.987 338.038 561.488 346.534 548.488L350.531 540.489L356.531 531.988C357.079 534.937 361.035 538.718 357.537 550.489Z" fill="#514F48"/>
<path d="M372.531 546.985C357.528 573.483 358.031 554.984 363.155 542.651L367.152 534.651L373.152 526.151C373.7 529.1 376.029 535.214 372.531 546.985Z" fill="#514F48"/>
<path d="M319.243 208.07C319.397 208.144 319.575 208.159 319.74 208.106C319.904 208.054 320.04 207.94 320.12 207.788C320.199 207.636 320.215 207.459 320.165 207.294C320.114 207.129 320.001 206.991 319.852 206.907C319.852 206.907 319.852 206.907 319.852 206.907C317.738 205.718 315.748 204.553 313.757 203.343C295.971 192.483 278.31 178.207 273.312 157.931C268.343 137.691 276.181 116.671 283.933 97.2937C284.831 95.0961 285.723 92.9564 286.652 90.7626C286.719 90.6046 286.724 90.4262 286.663 90.2649C286.602 90.1035 286.481 89.9729 286.326 89.9012C286.17 89.8296 285.992 89.8226 285.83 89.8815C285.668 89.9404 285.536 90.0605 285.459 90.214C285.459 90.214 285.459 90.214 285.459 90.214C284.396 92.3521 283.374 94.4417 282.352 96.5962C273.553 115.543 264.646 136.917 269.917 158.78C275.396 180.687 294.456 194.938 312.901 204.844C314.976 205.951 317.048 207.003 319.243 208.07Z" fill="#FAF8F2"/>
<path d="M424.372 211.532C424.227 211.624 424.051 211.658 423.882 211.624C423.713 211.59 423.565 211.492 423.469 211.35C423.373 211.208 423.337 211.033 423.369 210.864C423.401 210.694 423.499 210.544 423.638 210.444C425.635 209.009 427.537 207.595 429.401 206.162C446.283 193.092 462.37 177.265 467.662 156.691C473.085 136.064 464.75 114.677 454.493 96.0858C453.34 93.9851 452.165 91.9167 450.951 89.836C450.865 89.6879 450.837 89.5115 450.876 89.3437C450.916 89.176 451.02 89.0309 451.165 88.9401C451.31 88.8493 451.486 88.8198 451.654 88.8576C451.823 88.8955 451.969 88.9979 452.064 89.1405C452.064 89.1405 452.064 89.1405 452.064 89.1405C453.408 91.1534 454.709 93.1623 455.985 95.2131C467.278 113.257 476.822 135.409 471.056 157.55C465.344 179.535 448.085 195.348 430.416 207.561C428.458 208.9 426.463 210.21 424.372 211.532Z" fill="#FAF8F2"/>
<path d="M315.922 171.048C316.013 171.084 316.115 171.085 316.207 171.048C316.298 171.012 316.371 170.941 316.41 170.851C316.45 170.761 316.451 170.659 316.416 170.567C316.38 170.475 316.309 170.401 316.22 170.36C316.22 170.36 316.22 170.36 316.22 170.36C314.841 169.715 313.533 169.009 312.247 168.218C300.595 161.106 293.876 148.111 291.748 134.915C289.622 121.665 291.375 107.53 297.971 95.662C298.71 94.3532 299.516 93.0732 300.381 91.8468C300.438 91.7667 300.462 91.6675 300.448 91.57C300.433 91.4725 300.381 91.3848 300.303 91.326C300.224 91.2673 300.125 91.242 300.028 91.2556C299.93 91.2691 299.842 91.3206 299.781 91.3975C298.832 92.5956 297.943 93.8571 297.124 95.1555C289.779 106.944 287.568 121.557 289.775 135.24C291.938 148.862 299.402 162.376 311.75 169.071C313.107 169.818 314.482 170.468 315.922 171.048Z" fill="#FAF8F2"/>
<path d="M318.679 116.38C318.657 116.475 318.67 116.575 318.718 116.66C318.765 116.746 318.844 116.809 318.937 116.836C319.03 116.863 319.13 116.852 319.216 116.806C319.302 116.76 319.367 116.683 319.399 116.591C319.399 116.591 319.399 116.591 319.399 116.591C319.656 115.861 319.907 115.178 320.174 114.469C322.568 108.266 325.484 101.759 330.989 98.4147C336.519 95.0808 343.612 95.684 350.224 96.5307C350.984 96.6344 351.698 96.7368 352.462 96.855C352.558 96.8697 352.657 96.8495 352.738 96.7953C352.819 96.7411 352.876 96.6579 352.896 96.5633C352.916 96.4686 352.898 96.3696 352.845 96.2872C352.793 96.2048 352.71 96.1463 352.617 96.1211C352.617 96.1211 352.617 96.1211 352.617 96.1211C351.865 95.9202 351.16 95.7389 350.405 95.5599C343.882 94.0726 336.375 92.9043 329.956 96.7024C323.641 100.607 321.026 107.722 319.234 114.167C319.036 114.907 318.858 115.621 318.679 116.38Z" fill="#FAF8F2"/>
<path d="M416.11 112.016C416.142 112.107 416.141 112.208 416.104 112.298C416.066 112.388 415.995 112.46 415.906 112.498C415.817 112.535 415.717 112.536 415.626 112.5C415.535 112.464 415.462 112.395 415.419 112.308C415.419 112.308 415.419 112.308 415.419 112.308C415.098 111.654 414.788 111.049 414.453 110.412C411.515 104.862 407.769 99.337 402.071 97.2111C396.395 95.0722 389.878 96.3447 383.79 97.936C383.095 98.1226 382.437 98.3054 381.738 98.5087C381.645 98.5356 381.544 98.5286 381.457 98.4857C381.369 98.4428 381.302 98.3679 381.27 98.2769C381.237 98.1859 381.242 98.0854 381.283 97.9969C381.325 97.9083 381.398 97.8394 381.488 97.8018C381.488 97.8018 381.488 97.8018 381.488 97.8018C382.164 97.5179 382.804 97.2578 383.484 96.9969C389.42 94.7691 396.25 92.9286 402.782 95.3416C409.342 97.8347 412.993 104.13 415.35 109.998C415.622 110.678 415.862 111.323 416.11 112.016Z" fill="#FAF8F2"/>
<path d="M258.727 234.832C258.786 236.07 258.84 237.29 258.891 238.491C259.363 249.453 259.736 260.29 259.587 271.07C259.322 281.829 259.068 292.717 255.712 303.033C255.308 304.155 254.835 305.28 254.227 306.332C255.051 305.437 255.764 304.408 256.398 303.36C261.895 293.579 263.333 282.127 263.587 271.129C263.74 260.065 262.258 249.065 259.643 238.383C259.355 237.213 259.049 236.029 258.727 234.832Z" fill="#FAF8F2"/>
<path d="M215.298 296.788C219.919 299.012 224.529 301.28 229.064 303.66C255.491 315.886 273.219 338.411 290.152 361.487L290.164 361.504C301.632 375.67 314.937 386.826 327.686 398.727C337.032 407.507 347.516 416.3 354.236 425.74C355.844 428.377 356.966 430.64 357.289 433.32C357.485 436.346 358.772 440.881 360.534 443.777C368.762 457.696 378.055 471.323 383.006 485.584C385.196 495.71 387.015 506.137 387.303 516.554C387.239 521.509 387.54 527.153 384.03 531.025C387.994 527.482 388.294 521.615 388.823 516.598C389.521 505.962 388.562 495.339 387.073 484.809C382.66 468.284 374.047 454.56 366.578 440.577C365.174 437.776 364.661 435.91 364.429 432.445C364.115 428.599 362.395 424.864 360.663 421.907C352.515 409.898 342.636 401.9 333.096 392.834C320.364 380.981 306.631 369.705 295.735 357.143L295.748 357.159C278.217 334.799 257.318 311.899 229.707 302.282C224.942 300.325 220.125 298.52 215.298 296.788Z" fill="#FAF8F2"/>
<path d="M266.214 492.152C265.189 491.436 264.181 490.614 263.236 489.774C254.884 481.988 248.066 472.767 240.436 464.193C232.851 455.608 224.975 446.974 215.485 440.244C214.41 439.499 213.319 438.801 212.227 438.18C213.164 439.017 214.087 439.907 214.996 440.826C222.935 449.073 229.813 458.212 237.425 466.827C245.036 475.381 252.89 484.139 262.787 490.387C263.892 491.048 265.06 491.669 266.214 492.152Z" fill="#FAF8F2"/>
<path d="M233.749 550.668C233.544 550.063 233.357 549.468 233.187 548.881C231.6 543.49 231.2 537.959 232.16 532.624C233.117 527.309 235.278 522.131 238.533 517.612C238.909 517.11 239.298 516.613 239.727 516.18C239.213 516.511 238.723 516.927 238.251 517.358C234.112 521.229 231.207 526.57 230.191 532.275C229.147 537.999 230.212 543.995 232.834 549.022C233.118 549.57 233.423 550.119 233.749 550.668Z" fill="#FAF8F2"/>
<path d="M260.07 542.957C260.761 543.128 261.442 543.287 262.115 543.436C268.256 544.802 274.331 545.478 280.415 545.5C286.499 545.51 292.588 544.936 298.706 543.525C299.382 543.365 300.072 543.187 300.727 543C300.155 543.369 299.529 543.727 298.907 544.058C293.269 547.03 286.837 548.52 280.404 548.5C273.967 548.485 267.562 546.889 261.921 543.972C261.302 543.652 260.686 543.314 260.07 542.957Z" fill="#FAF8F2"/>
<path d="M258.437 557.543C259.097 557.654 259.745 557.756 260.381 557.849C266.197 558.717 271.895 559.137 277.546 558.876C283.189 558.617 288.787 557.655 294.36 555.784C294.98 555.583 295.61 555.356 296.227 555.18C295.697 555.536 295.158 555.93 294.612 556.296C289.709 559.661 283.714 561.612 277.685 561.872C271.637 562.158 265.618 560.835 260.22 558.396C259.629 558.128 259.035 557.844 258.437 557.543Z" fill="#FAF8F2"/>
<path d="M357.532 450.808C357.103 451.581 356.666 452.312 356.208 453.033C352.08 459.598 346.246 464.553 339.522 467.75C332.796 470.924 325.315 472.79 317.611 472.942C316.776 472.935 315.88 472.907 315.062 472.723C315.818 473.098 316.715 473.321 317.549 473.508C325.296 474.998 333.553 473.897 340.821 470.454C348.107 467.036 354.038 460.685 356.718 453.287C357.021 452.474 357.288 451.658 357.532 450.808Z" fill="#FAF8F2"/>
<path d="M659.5 510.523C658.795 511.352 658.07 512.135 657.309 512.899C650.45 519.762 641.585 523.969 632.443 526.692C623.262 529.337 613.64 530.901 603.98 530.567C602.908 530.483 601.792 530.424 600.836 530.023C601.742 530.549 602.866 530.74 603.935 530.944C613.62 532.369 623.583 531.33 633.011 528.609C642.389 525.84 651.476 520.841 657.593 513.152C658.271 512.3 658.901 511.432 659.5 510.523Z" fill="#FAF8F2"/>
<path d="M682.5 537.523C683.443 537.312 684.417 537.169 685.376 537.088C694.13 536.516 702.488 539.614 710.417 542.994C718.312 546.542 726.137 550.596 733.032 555.926C733.748 556.538 734.555 557.2 735 558.023C734.673 557.135 733.936 556.356 733.292 555.65C727.006 549.415 719.284 544.783 711.22 541.162C703.159 537.706 694.148 535.024 685.32 536.712C684.363 536.914 683.405 537.184 682.5 537.523Z" fill="#FAF8F2"/>
<path d="M285.189 502.19C284.086 500.366 281.985 499.404 280.139 498.438C270.83 494.115 259.725 492.721 249.44 496.261L249.376 496.287C241.085 499.526 233.171 503.803 226.27 509.68C210.945 520.814 202.979 548.507 220.576 560.748C222.292 562.045 224.104 563.103 226.031 563.984C224.266 562.812 222.666 561.508 221.201 560.032C206.807 546 215.683 524.23 229.518 513.481C235.903 508.042 243.224 503.734 251.001 500.092L250.937 500.118C259.704 496.405 270.216 496.434 279.784 499.319C281.695 499.993 283.844 500.604 285.189 502.19Z" fill="#FAF8F2"/>
<path d="M264.547 511.508C264.41 511.326 264.283 511.15 264.161 510.976C263.035 509.437 262.068 507.665 262.497 506.734C262.826 505.716 264.628 504.814 266.422 504.213C266.63 504.143 266.831 504.075 267.047 504.008C266.831 503.941 266.624 503.883 266.404 503.833C264.565 503.457 261.876 503.388 260.62 506.045C259.835 509.005 262.246 510.528 263.925 511.274C264.125 511.357 264.332 511.434 264.547 511.508Z" fill="#FAF8F2"/>
<path d="M262.547 512.505C263.04 512.983 263.6 513.44 264.181 513.866C269.465 517.579 275.666 519.584 281.725 521.265C287.801 522.989 294.094 523.735 300.012 525.6C300.629 525.849 301.302 526.119 301.723 526.677C301.474 526.006 300.845 525.518 300.286 525.1C294.746 521.63 288.522 520.08 282.506 518.369C276.46 516.689 270.318 515.55 264.458 513.368C263.804 513.107 263.157 512.821 262.547 512.505Z" fill="#FAF8F2"/>
<path d="M301.724 526.678C301.811 527.021 301.578 527.223 301.336 527.385C301.102 527.53 300.808 527.649 300.528 527.739C295.156 528.998 289.488 528.965 284.025 529.297C278.527 529.475 273.057 529.87 267.546 528.71C266.942 528.571 266.319 528.39 265.725 528.179C266.178 528.617 266.703 529.034 267.234 529.404C272.231 532.714 278.426 533.504 284.201 533.293C289.984 532.944 295.92 531.855 300.903 528.4C301.156 528.187 301.424 527.939 301.613 527.66C301.821 527.377 301.956 526.952 301.724 526.678Z" fill="#FAF8F2"/>
<path d="M285.049 502.007C285.173 502.483 285.239 502.932 285.254 503.38C285.235 507.587 280.587 508.558 276.986 509.547C273.148 510.422 269.143 510.986 264.954 511.034C264.493 511.036 264.012 511.025 263.546 511.006C263.961 511.219 264.407 511.417 264.845 511.593C268.865 513.169 273.385 513.455 277.677 512.467C279.821 511.949 281.952 511.116 283.772 509.608C285.601 508.226 286.894 505.332 285.808 503.248C285.606 502.793 285.352 502.395 285.049 502.007Z" fill="#FAF8F2"/>
<path d="M473.977 553.168C474.183 552.563 474.369 551.968 474.539 551.381C476.127 545.99 476.526 540.459 475.566 535.124C474.61 529.809 472.448 524.631 469.194 520.112C468.818 519.61 468.428 519.113 468 518.68C468.514 519.011 469.004 519.427 469.476 519.858C473.615 523.729 476.519 529.07 477.536 534.775C478.58 540.499 477.515 546.495 474.892 551.522C474.608 552.07 474.304 552.619 473.977 553.168Z" fill="#FAF8F2"/>
<path d="M436.482 512.039C436.6 511.83 436.706 511.635 436.82 511.43C437.773 509.685 438.881 507.556 437.812 506.628C436.69 505.527 434.559 504.943 432.649 504.242C432.437 504.167 432.218 504.09 431.992 504.012C432.23 503.991 432.463 503.973 432.689 503.96C434.756 503.922 436.985 503.856 438.911 505.607C439.929 506.581 439.752 508.309 439.172 509.218C438.615 510.211 437.851 510.95 437.039 511.613C436.854 511.763 436.675 511.896 436.482 512.039Z" fill="#FAF8F2"/>
<path d="M436.483 512.04C433.731 513.043 430.748 513.376 427.805 513.505C423.792 513.643 419.744 513.348 415.775 512.364C413.806 511.85 411.826 511.202 410.01 509.93C409.125 509.289 408.245 508.444 407.789 507.233C407.315 506.018 407.527 504.6 408.043 503.544L407.982 503.694C412.497 495.366 421.6 494.436 429.212 492.945C437.109 491.894 445.352 492.035 453.116 494.918L453.003 494.878C455.757 495.723 458.428 496.712 461.03 497.861C485.564 507.168 505.458 540.665 486.719 563.239C484.78 565.479 482.514 567.404 480.031 568.984C482.382 567.213 484.468 565.142 486.201 562.822C502.458 539.801 482.734 510.129 459.616 501.063C457.141 499.97 454.6 499.018 451.974 498.191L451.861 498.151C438.488 493.692 419.092 493.993 410.005 504.331L409.944 504.482C408.086 507.42 412.709 509.918 416.175 510.963C419.896 512.131 423.853 512.694 427.803 512.84C430.707 512.92 433.665 512.818 436.483 512.04Z" fill="#FAF8F2"/>
<path d="M439.991 526.032C438.438 526.651 436.85 527.202 435.241 527.688C420.954 531.288 403.933 533.973 390.825 522.82C390.192 521.951 389.698 520.919 389.513 519.778L389.492 519.532C389.439 517.954 390.698 516.652 391.628 516.158C392.604 515.591 393.591 515.302 394.51 515.079C396.383 514.644 398.198 514.479 400.009 514.362C403.623 514.148 407.17 514.196 410.717 514.25C417.785 514.316 424.89 514.8 431.806 513.658C433.433 513.346 435.064 512.92 436.483 512.041C435.177 513.088 433.559 513.718 431.942 514.212C425.029 516.134 417.793 516.231 410.745 516.569C407.208 516.716 403.685 516.828 400.224 517.143C398.499 517.308 396.781 517.519 395.211 517.918C393.646 518.261 392.268 519.159 392.484 519.533L392.463 519.287C392.567 519.894 392.835 520.483 393.251 521.056C403.417 529.898 420.851 529.408 435.106 527.134C436.743 526.827 438.375 526.461 439.991 526.032Z" fill="#FAF8F2"/>
<path d="M400.48 528.033C399.402 528.604 398.455 529.173 397.519 529.822C395.519 531.181 393.383 533.345 393.882 535.089C394.324 536.811 396.619 538.111 398.807 538.989C403.354 540.744 408.332 541.468 413.366 541.992C423.387 542.954 433.672 542.778 444.005 542.159C445.143 542.09 446.297 542.012 447.468 541.924C446.347 542.274 445.235 542.602 444.131 542.908C434.103 545.667 423.497 546.983 412.972 545.973C407.673 545.413 402.431 544.41 397.46 541.88C395.124 540.548 392.206 538.933 391.72 535.355C391.733 531.617 394.934 530.185 397.153 529.156C398.241 528.697 399.304 528.356 400.48 528.033Z" fill="#FAF8F2"/>
<path d="M452.866 492.444C454.33 492.555 455.793 491.915 457.115 491.336C469.012 485.086 478.687 476.12 488.524 467.59C498.337 459.032 507.459 449.709 518.117 442.35C519.359 441.543 520.609 440.804 521.884 440.18C520.498 440.489 519.09 440.95 517.682 441.505C505.4 446.672 495.035 455.273 485.205 463.85C475.298 472.449 466.658 482.276 456.634 490.516C455.497 491.329 454.29 492.216 452.866 492.444Z" fill="#FAF8F2"/>
<path d="M308.061 548.17C312.824 545.657 315.957 540.432 316.276 534.985C317.08 517.873 305.615 502.855 303.714 487.68C304.475 479.904 297.279 473.871 291.496 471.137C285.503 467.983 279.627 465.191 274.407 461.403C260.473 451.316 245.281 442.51 229.742 435.472C228.842 435.028 227.959 434.585 227.092 434.145C207.039 424.283 189.539 410.425 176.707 391.946C175.737 390.659 175.006 389.716 174.01 388.536C173.646 388.108 172.961 387.334 172.49 386.899C172.293 386.712 172.103 386.545 171.906 386.392C171.807 386.315 171.706 386.242 171.599 386.172C171.535 386.13 171.525 386.123 171.401 386.05C171.286 385.983 171.161 385.918 171.016 385.859C170.731 385.744 170.349 385.624 169.821 385.679C169.612 385.694 169.146 385.818 168.831 386.046C168.502 386.271 168.274 386.565 168.136 386.822C167.999 387.072 167.925 387.342 167.897 387.477C167.873 387.588 167.859 387.69 167.849 387.787C167.829 387.98 167.828 388.152 167.835 388.316C168.39 391.989 169.498 394.098 170.399 396.835C171.313 399.428 172.291 402.081 172.811 404.549C172.933 405.132 172.994 405.82 172.958 406.012C172.957 406.05 172.946 406.009 173.061 405.852C173.156 405.703 173.48 405.494 173.696 405.479C173.926 405.457 173.916 405.493 173.902 405.485C173.879 405.482 173.791 405.454 173.673 405.394C173.369 405.259 172.719 404.786 172.311 404.445C172.072 404.248 171.811 404.022 171.53 403.766C171.297 403.555 171.089 403.362 170.851 403.134C163.144 395.328 156.503 386.489 149.596 377.691L149.547 377.631C147.155 374.985 143.347 374.204 140.098 374.646C134.657 375.363 129.804 377.789 125.057 380.18C129.932 378.087 134.963 375.974 140.18 375.592C143.32 375.361 146.525 376.263 148.452 378.625L148.403 378.566C154.888 387.759 160.985 396.778 168.725 405.265C168.971 405.52 169.188 405.74 169.435 405.984C169.737 406.278 170.023 406.546 170.295 406.789C170.759 407.209 171.528 407.836 172.185 408.194C172.439 408.332 172.713 408.457 173.001 408.546C173.146 408.59 173.297 408.626 173.458 408.65C173.498 408.656 173.536 408.66 173.581 408.665C173.645 408.671 173.71 408.675 173.777 408.677C173.91 408.68 174.049 408.672 174.191 408.651C175.486 408.494 176.082 407.164 176.144 406.645C176.345 405.483 176.189 404.75 176.085 403.972C175.562 400.991 174.657 398.348 173.821 395.677C173.022 393.108 171.924 390.085 171.706 388.186C171.706 388.162 171.71 388.163 171.707 388.207C171.705 388.229 171.701 388.262 171.692 388.308C171.681 388.362 171.646 388.506 171.553 388.679C171.461 388.852 171.288 389.082 171.026 389.261C170.775 389.444 170.403 389.541 170.247 389.552C169.849 389.592 169.621 389.502 169.515 389.462C169.404 389.415 169.414 389.413 169.418 389.419C169.425 389.425 169.445 389.441 169.475 389.466C169.535 389.517 169.632 389.604 169.754 389.726C170.035 390.004 170.622 390.686 170.935 391.084C171.806 392.174 172.486 393.108 173.396 394.375C185.793 413.406 204.431 428.659 224.826 438.602C225.712 439.052 226.615 439.504 227.534 439.956C243.209 447.049 257.807 455.313 271.87 465.025C282.235 473.357 300.399 474.48 300.454 487.68C303.43 505.169 315.183 518.187 315.328 534.928C315.306 540.149 312.666 545.337 308.061 548.17Z" fill="#FAF8F2"/>
<path d="M523.5 417.024C527.168 415.798 530.85 414.807 534.589 414.021C566.846 406.932 609.14 417.249 616.635 449.443C622.074 481.551 595.436 511.143 571.933 534.587C569.259 537.192 566.447 539.838 563.492 542.525C566.779 540.256 569.921 537.995 572.921 535.742C598.95 515.265 630.241 487.141 624.456 447.763C614.096 407.676 565.359 401.328 534.184 412.556C530.514 413.82 526.965 415.305 523.5 417.024Z" fill="#FAF8F2"/>
<path d="M294.227 295.68C295.962 297.605 297.941 299.317 300.088 300.807C319.228 313.27 343.533 310.492 364.727 309.675C366.039 309.678 367.314 309.698 368.593 309.737C381.175 309.749 394.012 314.305 407.307 312.676L407.376 312.671C417.675 311.294 428.289 309.007 436.851 302.808C438.952 301.229 440.833 299.368 442.227 297.18C440.615 299.212 438.603 300.836 436.423 302.18C427.581 307.405 417.215 308.856 407.077 309.688L407.146 309.683C394.347 310.624 382.108 305.825 368.715 305.739C367.393 305.699 366.077 305.681 364.727 305.685C342.767 306.619 320.21 310.484 300.493 300.164C298.262 298.904 296.151 297.416 294.227 295.68Z" fill="#FAF8F2"/>
<path d="M523.872 404.184C523.572 401.206 523.288 398.244 523.001 395.284C521.9 382.793 520.169 370.755 516.575 359.043C513.138 345.486 505.076 335.011 496.936 322.904C494.508 319.25 492.184 315.584 489.92 311.801C481.764 298.122 474.928 280.307 481.429 263.929C483.244 258.426 484.096 251.443 485.113 245.026C485.55 242.086 485.966 239.138 486.371 236.179C486.566 239.159 486.719 242.138 486.82 245.122C486.945 251.83 487.369 258.132 486.055 265.427C482.475 279.918 489.399 294.477 497.412 307.168C499.73 310.797 502.047 314.335 504.433 317.925C512.143 329.318 521.147 342.642 523.308 357.433C525.858 369.915 525.886 382.875 524.711 395.274C524.458 398.245 524.172 401.206 523.872 404.184Z" fill="#FAF8F2"/>
<path d="M323.658 174.35C328.24 161.122 349.236 130.981 370.193 138.913C385.566 129.386 417.694 167.998 418.781 181.217C425.412 261.846 301.685 237.779 323.658 174.35Z" fill="#FAF8F2" stroke="#FAF8F2" stroke-width="2"/>
<path d="M378.375 120.008C384.875 109.504 398.875 110.004 403.375 120.008C399.375 128.504 385.875 131.004 378.375 120.008Z" fill="#FAF8F2" stroke="#FAF8F2" stroke-width="0.5"/>
<path d="M372.849 156.6C371.379 152.605 381.933 146.769 384.802 150.005C387.109 152.606 373.941 160.168 372.849 156.6Z" fill="#514F48" stroke="#514F48"/>
<path d="M364.281 156.096C365.691 152.032 355.083 146.245 352.268 149.557C350.004 152.218 363.243 159.724 364.281 156.096Z" fill="#514F48" stroke="#514F48"/>
<circle cx="392.875" cy="120.004" r="5" fill="#514F48"/>
<path d="M357.023 119.68C350.523 109.176 336.523 109.676 332.023 119.68C336.023 128.176 349.523 130.676 357.023 119.68Z" fill="#FAF8F2" stroke="#FAF8F2" stroke-width="0.5"/>
<circle cx="5" cy="5" r="5" transform="matrix(-1 0 0 1 350.023 114.988)" fill="#514F48"/>
<path d="M377.031 525.484C379.031 533.984 387.031 538.985 388.031 520.984C388.031 523.484 391.131 526.484 381.531 550.484H371.531C372.031 548.984 376.031 537.484 377.031 525.484Z" fill="#514F48" stroke="#514F48" stroke-width="0.25" stroke-miterlimit="1.74345" stroke-linecap="round"/>
<path d="M443.078 90.0211C389.547 26.4842 325.547 44.9842 291.828 102.536C318.812 27.0433 398.547 20.9818 443.078 90.0211Z" fill="#FAF8F2" stroke="#FAF8F2" stroke-width="2" stroke-linecap="round"/>
<path d="M404.029 186.483C388.531 204.48 348.031 198.98 335.531 187.484C358.531 199.98 385.031 201.48 404.029 186.483Z" fill="#514F48"/>
<path d="M404.029 186.483L404.218 186.646C404.303 186.549 404.299 186.403 404.21 186.31C404.12 186.217 403.975 186.207 403.874 186.287L404.029 186.483ZM335.531 187.484L335.65 187.264L335.362 187.668L335.531 187.484ZM404.029 186.483L403.84 186.32C396.166 195.231 382.265 198.355 368.666 197.794C361.875 197.514 355.179 196.314 349.404 194.47C343.625 192.625 338.788 190.14 335.7 187.3L335.531 187.484L335.362 187.668C338.524 190.576 343.437 193.09 349.252 194.947C355.071 196.805 361.812 198.011 368.646 198.294C382.297 198.857 396.394 195.732 404.218 186.646L404.029 186.483ZM404.029 186.483L403.874 186.287C384.981 201.201 358.597 199.731 335.65 187.264L335.531 187.484L335.412 187.704C358.466 200.229 385.081 201.759 404.184 186.68L404.029 186.483Z" fill="#514F48"/>
<path d="M364.842 33.1611C365.385 35.131 365.492 36.7371 365.349 38.0459C367.241 36.9257 369.79 35.7664 373.057 34.8018L374.753 34.3008L373.569 35.6152C372.904 36.3544 372.288 36.9764 371.746 37.4893C373.612 36.7668 376.527 35.7291 380.792 34.5049L382.425 34.0361L381.307 35.3145C380.398 36.3527 379.176 37.3558 378.151 38.1641C377.76 38.4728 377.404 38.7521 377.095 38.9971C377.17 38.9752 377.251 38.9536 377.334 38.9287C378.858 38.4734 381.504 37.5537 385.761 36.0156L386.43 35.7734V36.4854C386.43 37.111 386.414 37.6764 386.409 38.1338C386.404 38.6051 386.411 38.9697 386.449 39.2549C386.487 39.5431 386.551 39.6918 386.613 39.7715C386.662 39.8332 386.743 39.8968 386.944 39.9287C387.163 39.9633 387.488 39.9537 387.972 39.874C388.449 39.7952 389.049 39.6545 389.805 39.4492C391.318 39.038 393.398 38.3849 396.279 37.5078L397.5 37.1367L396.856 38.2383C395.771 40.0967 394.992 41.2947 394.576 42.1055C394.389 42.4717 394.321 42.6834 394.306 42.7949C394.441 42.8358 394.709 42.8581 395.191 42.8311C395.672 42.8041 396.296 42.7352 397.095 42.6426C398.685 42.458 400.914 42.1836 403.892 41.9873L405.791 41.8623L404.199 42.9053C402.841 43.7942 401.632 44.6469 400.8 45.3584C400.381 45.7163 400.08 46.0205 399.902 46.2607C399.841 46.3432 399.805 46.4108 399.781 46.46C399.833 46.4751 399.908 46.493 400.015 46.5039C400.358 46.5391 400.9 46.5122 401.692 46.3926C403.269 46.1547 405.713 45.566 409.282 44.5068L410.414 44.1719L409.869 45.2178C408.994 46.8964 408.342 48.2065 407.885 49.2422C409.062 49.2908 410.362 49.4174 411.78 49.6455L413.526 49.9268L411.891 50.6016C411.271 50.8573 410.702 51.0679 410.192 51.2402C411.875 51.3816 414.351 51.6579 417.763 52.2334L419.438 52.5156L417.876 53.1855C416.801 53.6467 415.502 53.9658 414.431 54.207C414.181 54.2632 413.946 54.318 413.728 54.3662C415.079 54.5693 417.373 54.824 420.98 55.1855L421.688 55.2568L421.381 55.9004C421.153 56.3755 420.935 56.801 420.766 57.1445C420.59 57.5008 420.465 57.7756 420.392 58C420.318 58.2267 420.317 58.3461 420.331 58.4092C420.34 58.4502 420.365 58.5134 420.494 58.6025C420.637 58.701 420.878 58.8086 421.271 58.9229C421.658 59.0356 422.162 59.146 422.81 59.2646C424.106 59.5023 425.921 59.7635 428.429 60.1455L429.69 60.3379L428.634 61.0537C427.129 62.0735 426.108 62.6952 425.5 63.1582C425.288 63.3199 425.169 63.4349 425.105 63.5078C425.203 63.5764 425.381 63.6719 425.685 63.7969C426.057 63.9502 426.555 64.1245 427.195 64.3447C428.47 64.7828 430.264 65.3858 432.599 66.3203L434.365 67.0273L432.479 67.2793C431.125 67.4604 429.901 67.6688 429.016 67.9053C428.57 68.0243 428.237 68.1432 428.022 68.2568C427.997 68.2705 427.975 68.2868 427.955 68.2988C427.975 68.3126 427.997 68.3287 428.023 68.3447C428.263 68.4909 428.676 68.6665 429.319 68.8633C430.597 69.2541 432.663 69.6959 435.758 70.1895L436.924 70.375L435.979 71.083C433.778 72.7344 432.334 73.5984 431.465 74.0869C431.29 74.1852 431.146 74.2647 431.026 74.3301C431.25 74.4765 431.528 74.6752 431.843 74.958C432.6 75.6384 433.542 76.7748 434.488 78.7676C434.767 79.3539 434.964 79.7939 435.079 80.0938C435.134 80.2381 435.18 80.3783 435.202 80.4951C435.212 80.5459 435.228 80.6465 435.208 80.7568C435.197 80.8161 435.17 80.912 435.095 81.0039C435.01 81.1075 434.891 81.1716 434.765 81.1904C434.564 81.2202 434.412 81.1272 434.377 81.1055C434.316 81.068 434.262 81.0225 434.22 80.9844C434.134 80.9059 434.036 80.7995 433.933 80.6797C433.723 80.4362 433.443 80.0825 433.107 79.6445C431.756 77.882 429.382 74.6284 426.334 70.9092C423.287 67.1918 419.581 63.027 415.585 59.4648C415.392 59.2927 415.197 59.1232 415.003 58.9541C414.759 58.8199 414.49 58.6708 414.198 58.5078C411.674 57.0974 407.367 54.6293 402.157 51.9766C401.912 52.0216 401.689 52.0565 401.487 52.0762C400.993 52.1244 400.557 52.1087 400.25 51.9814C400.093 51.9162 399.889 51.7871 399.799 51.542C399.704 51.2843 399.787 51.0483 399.883 50.8955C399.892 50.8808 399.903 50.867 399.913 50.8525C394.626 48.2444 388.616 45.5832 382.693 43.6826C376.302 41.6317 370.069 40.4821 364.975 41.1816C364.36 41.7166 363.817 42.1213 363.355 42.415C363.343 42.4282 363.331 42.4423 363.318 42.4551C363.544 42.4475 363.816 42.4387 364.144 42.4277C366.013 42.3649 369.448 42.2819 375.382 42.5391C376.15 42.5723 376.69 42.5991 377.018 42.6221C377.173 42.633 377.307 42.6444 377.394 42.6602C377.416 42.6642 377.453 42.6717 377.492 42.6846C377.511 42.6909 377.547 42.7036 377.587 42.7256C377.615 42.7409 377.715 42.7974 377.784 42.9189C377.813 42.979 377.848 43.117 377.851 43.1934C377.841 43.2672 377.797 43.3948 377.766 43.4482C377.695 43.5536 377.604 43.6023 377.578 43.6162C377.514 43.6503 377.453 43.6648 377.436 43.6689C377.35 43.689 377.22 43.7018 377.094 43.7119C376.952 43.7233 376.766 43.735 376.543 43.748C376.096 43.774 375.479 43.8046 374.722 43.8447C371.687 44.0056 366.33 44.315 360.093 45.041C353.853 45.7673 346.746 46.9093 340.213 48.7334C333.728 50.5441 327.864 53.0145 323.966 56.3721C323.714 57.245 323.454 57.9353 323.202 58.4541C323.008 58.8543 322.8 59.1884 322.581 59.4219C322.597 59.4502 322.611 59.4779 322.626 59.5039C322.813 59.8322 322.927 59.9677 323.04 60.0371C323.135 60.0951 323.301 60.1478 323.698 60.0967C324.101 60.0447 324.669 59.8962 325.513 59.626C327.204 59.0845 329.835 58.1131 334.179 56.6387C334.757 56.4424 335.193 56.3154 335.469 56.2793C335.54 56.27 335.624 56.2642 335.709 56.2715C335.775 56.2772 335.945 56.2971 336.085 56.4336C336.273 56.6164 336.266 56.8511 336.225 56.9893C336.19 57.1052 336.124 57.1931 336.084 57.2422C335.997 57.3489 335.873 57.4587 335.743 57.5635C335.606 57.6738 335.437 57.8012 335.239 57.9404C334.844 58.219 334.32 58.564 333.691 58.9688C331.17 60.5934 326.911 63.2053 322.189 66.4297C317.469 69.653 312.31 73.4743 308.013 77.4941C303.702 81.526 300.316 85.707 299.061 89.6436L299.047 89.6875L299.024 89.7285C298.517 90.6698 298.086 91.4177 297.724 91.9814C297.369 92.5331 297.055 92.949 296.776 93.1885C296.643 93.3033 296.456 93.4327 296.228 93.46C295.94 93.4941 295.707 93.3567 295.566 93.1611C295.449 92.9976 295.394 92.7968 295.363 92.6221C295.331 92.4364 295.317 92.2199 295.313 91.9824C295.301 91.0432 295.473 89.5299 295.741 87.5957C296.011 85.6524 296.386 83.2351 296.789 80.4785L297.058 78.6445L297.747 80.3643C298.225 81.5552 298.571 82.5731 298.828 83.3799C298.847 83.1647 298.864 82.9318 298.888 82.6836C299.043 81.0204 299.308 78.6064 299.816 75.3252L300.054 73.791L300.757 75.1758C301.271 76.189 301.718 77.388 302.099 78.3164C302.293 78.7906 302.468 79.1894 302.628 79.4824C302.674 79.5673 302.718 79.6379 302.757 79.6963C302.861 79.4622 302.983 79.0643 303.109 78.4375C303.396 77.0112 303.685 74.5883 303.995 70.7617L304.065 69.8994L304.777 70.3906C305.647 70.9903 306.276 71.5489 306.727 72.0205C306.718 70.5934 306.91 68.1874 307.831 64.4395L308.118 63.2715L308.743 64.2979C309.284 65.1853 309.717 65.8747 310.068 66.3896C310.412 66.8941 310.657 67.1953 310.829 67.3525C310.861 67.2774 310.897 67.1775 310.936 67.0479C311.325 65.7263 311.719 62.1451 313.571 57.7891L314.259 56.1729L314.525 57.9092C314.744 59.336 315.067 60.4805 315.411 61.2256C315.585 61.6018 315.749 61.8416 315.882 61.9688C315.937 62.0216 315.973 62.0426 315.992 62.0508C316.022 62.0311 316.109 61.9597 316.224 61.7314C316.365 61.4519 316.508 61.0161 316.634 60.3887C316.884 59.1376 317.048 57.2177 317.048 54.4824V53.4893L317.847 54.0811C319.461 55.2795 320.49 56.3371 321.192 57.2314C321.691 54.9674 323.407 51.1422 327.284 46.624L328.436 45.2822L328.157 47.0293C327.924 48.4878 327.648 49.686 327.415 50.5957C327.655 50.2812 327.932 49.9176 328.25 49.5088C329.461 47.9526 331.261 45.7071 333.875 42.708L334.826 41.6162L334.751 43.0625C334.69 44.2339 334.44 45.5632 334.284 46.5957C334.204 47.1258 334.149 47.5711 334.145 47.9062C334.143 48.0172 334.15 48.1061 334.158 48.1758C334.187 48.1604 334.221 48.1442 334.259 48.1201C334.549 47.9346 334.979 47.5568 335.592 46.9082C336.809 45.62 338.65 43.3683 341.386 39.7676L341.81 39.208L342.199 39.793C342.868 40.7967 343.23 41.6452 343.43 42.3076C344.23 40.9714 345.933 38.6131 349.591 35.0215L350.39 34.2373L350.44 35.3555C350.538 37.4921 350.444 38.9777 350.397 39.875C350.394 39.9382 350.394 39.9976 350.392 40.0527C350.415 40.03 350.44 40.0069 350.465 39.9824C350.775 39.6789 351.2 39.2488 351.751 38.7236C352.86 37.6672 354.496 36.2047 356.896 34.417L358.422 33.2803L357.651 35.0205C356.998 36.4971 356.526 37.8165 356.327 38.7861C356.227 39.2758 356.206 39.6344 356.24 39.8652C356.257 39.9777 356.284 40.0337 356.298 40.0547C356.301 40.0588 356.303 40.0613 356.304 40.0625L356.354 40.0674C356.432 40.0666 356.602 40.0373 356.906 39.8809C357.29 39.6834 357.799 39.3276 358.452 38.7695C359.755 37.6554 361.561 35.7946 363.979 32.9688L364.592 32.2539L364.842 33.1611Z" fill="#FAF8F2"/>
<path d="M288.025 97.9841C289.229 98.1336 312.526 73.9868 327.026 65.9868C326.483 66.986 296.528 92.9858 292.028 104.486C291.695 104.652 288.942 98.7982 288.025 97.9841Z" fill="#514F48" stroke="#514F48" stroke-miterlimit="1.74345" stroke-linecap="round"/>
<path d="M446.03 85.4803C439.102 82.5145 395.91 53.5754 412.875 65.6025C412.068 65.388 432.179 84.6243 440.948 93.335C441.297 93.4671 445.201 86.3829 446.03 85.4803Z" fill="#514F48"/>
<path d="M413.411 65.9822C395.027 52.9842 439.031 82.4844 446.03 85.4803C445.201 86.3829 441.297 93.4671 440.948 93.335C431.53 83.9793 409.028 62.4819 413.411 65.9822Z" stroke="#514F48" stroke-miterlimit="1.74345" stroke-linecap="round"/>
<path d="M422.939 167.895C422.851 167.939 422.749 167.948 422.655 167.919C422.561 167.89 422.482 167.825 422.436 167.738C422.39 167.651 422.38 167.55 422.409 167.455C422.437 167.361 422.502 167.281 422.587 167.233C422.587 167.233 422.587 167.233 422.587 167.233C424.019 166.425 425.334 165.627 426.689 164.746C438.755 157.121 448.08 144.812 449.723 130.643C451.538 116.556 447.121 102.137 439.665 89.9708C438.829 88.6151 437.945 87.2786 437.029 85.9838C436.972 85.9037 436.947 85.8044 436.962 85.7069C436.976 85.6093 437.028 85.5216 437.107 85.4628C437.186 85.404 437.284 85.3787 437.382 85.3923C437.48 85.4059 437.568 85.4574 437.629 85.5345C437.629 85.5345 437.629 85.5345 437.629 85.5345C438.623 86.7928 439.583 88.0999 440.493 89.4329C448.616 101.384 453.6 116.173 451.706 130.904C450.007 145.746 439.782 158.486 427.208 165.586C425.794 166.416 424.424 167.153 422.939 167.895Z" fill="#FAF8F2"/>
<path d="M447.497 556.023C446.558 556.061 445.629 556.087 444.701 556.102C436.339 556.227 428.191 555.593 420.204 554.212C412.695 552.522 402.857 551.604 399.521 544.61C399.377 543.777 399.557 542.87 399.997 542.023C399.345 542.711 398.856 543.599 398.761 544.626C398.859 549.588 403.611 552.238 407.236 554.223C411.116 556.179 415.31 557.408 419.513 558.152C427.961 559.62 436.673 559.137 444.812 556.854C445.714 556.6 446.607 556.323 447.497 556.023Z" fill="#FAF8F2"/>
<path d="M373.086 494.047C377.086 505.047 376.591 527.547 381.086 530.547C387.086 534.551 388.041 522.972 387.562 500.52M330.102 510.065C335.594 528.553 334.086 553.555 306.107 561.073C298.586 557.055 312.099 545.072 310.098 547.07" stroke="#FAF8F2" stroke-width="1.5" stroke-linecap="round"/>
<path d="M361.305 505.065C372.101 538.731 350.587 564.683 364.07 559.219C376.578 549.551 378.914 521.163 373.078 494.047M361.3 505.064C372.368 538.736 350.586 565.051 364.07 559.223" stroke="#FAF8F2" stroke-width="1.5" stroke-linecap="round"/>
<path d="M346.585 507.054C358.585 541.054 333.078 567.054 346.023 564.453C361.079 558.049 368.079 523.056 361.087 505.059M346.593 507.055C358.593 541.055 334.131 565.713 344.078 564.616" stroke="#FAF8F2" stroke-width="1.5" stroke-linecap="round"/>
<path d="M324.115 566.24C316.264 563.608 343.071 544.39 330.094 510.06C343.071 544.39 316.26 563.611 324.115 566.24ZM324.115 566.24C338.207 569.14 352.686 534.256 346.586 507.051" stroke="#FAF8F2" stroke-width="1.5" stroke-linecap="round"/>
</g>
<defs>
<clipPath id="clip0_1062_171">
<rect width="815" height="605" fill="white"/>
</clipPath>
</defs>
</svg>
