<svg width="700" height="590" viewBox="0 0 700 590" fill="none" xmlns="http://www.w3.org/2000/svg">
<g clip-path="url(#clip0_971_105)">
<path d="M298.351 18.0165C295.381 28.1425 293.756 24.663 305.04 20.7229C300.351 26.5165 303.564 27.8355 316.664 18.9844C314.023 32.4453 308.523 19.7575 333.523 32.4453C355.073 43.382 369.851 66.0145 374.851 98.5145C452.851 134.015 455.851 148.015 475.851 196.015C479.71 205.277 477.21 212.819 507.71 259.917C522.608 282.921 508.726 297.423 546.726 341.423C522.226 335.923 523.226 327.923 546.726 363.923C529.726 356.423 529.226 346.423 546.726 383.923C565.726 430.423 544.226 440.423 582.226 520.923C635.622 537.996 671.607 557.495 659.453 564.475C653.617 574.49 632.121 563.586 618.116 561.65C589.123 560.585 573.623 559.085 562.123 560.585C525.143 544.475 542.129 564.944 562.129 565.946C579.653 567.445 565.624 578.901 562.129 578.445C539.653 575.51 516.153 570.51 507.659 559.938C499.153 548.366 500.153 546.51 499.153 540.01C470.516 569.996 336.016 598.996 332.016 557.875L303.104 557.875C287.516 557.875 278.016 555.05 245.516 555.05L223.064 555.05C224.023 578.445 176.531 580.816 162.547 575.549C5.59087 516.928 10.5234 409.945 53.5235 388.945C51.0654 368.298 49.0907 370.368 39.0454 380.898L38.5235 381.445C46.0234 348.445 47.5235 349.445 34.0234 365.445C34.0234 335.445 81.5234 269.445 100.023 226.445C127.023 134.945 151.023 131.852 159.523 124.945C163.523 121.695 195.023 103.945 212.523 99.4453C217.523 52.4453 251.351 30.0163 273.938 21.3105C268.851 29.0164 267.351 29.0165 281.351 19.7575C279.351 25.0164 273.814 31.6542 289.233 19.7574C290.351 28.0164 284.72 25.4092 298.351 18.0165Z" fill="#AFBF41" stroke="#AFBF41" stroke-width="2" stroke-linecap="round"/>
<path d="M250.027 557.992C221.031 581.492 228.03 559.991 238.029 552.991L255.031 543.992C255.031 546.992 254.03 553.992 250.027 557.992Z" fill="#AFBF41"/>
<path d="M265.036 562.993C244.033 586.988 246.035 569.99 254.033 559.492L257.531 549.988L264.031 540.488C264.58 543.438 270.531 551.988 265.036 562.993Z" fill="#AFBF41"/>
<path d="M282.529 558.489C267.527 584.987 263.03 569.488 271.526 556.488L275.523 548.489L281.523 539.988C282.071 542.937 286.027 546.718 282.529 558.489Z" fill="#AFBF41"/>
<path d="M297.531 554.985C282.528 581.483 283.031 562.984 288.155 550.651L292.152 542.651L298.152 534.151C298.7 537.1 301.029 543.214 297.531 554.985Z" fill="#AFBF41"/>
<path d="M244.235 216.07C244.39 216.144 244.567 216.159 244.732 216.106C244.896 216.054 245.033 215.94 245.112 215.788C245.191 215.636 245.208 215.459 245.157 215.294C245.107 215.129 244.993 214.991 244.844 214.907C244.844 214.907 244.844 214.907 244.844 214.907C242.73 213.718 240.74 212.553 238.749 211.343C220.963 200.483 203.303 186.207 198.304 165.931C193.335 145.691 201.173 124.671 208.925 105.294C209.823 103.096 210.715 100.956 211.644 98.7626C211.711 98.6046 211.716 98.4262 211.655 98.2649C211.595 98.1035 211.473 97.9729 211.318 97.9012C211.162 97.8296 210.984 97.8226 210.822 97.8815C210.66 97.9404 210.528 98.0605 210.452 98.214C210.452 98.214 210.452 98.214 210.452 98.214C209.388 100.352 208.366 102.442 207.344 104.596C198.545 123.543 189.638 144.917 194.909 166.78C200.388 188.687 219.448 202.938 237.893 212.844C239.968 213.951 242.041 215.003 244.235 216.07Z" fill="#FAF8F2"/>
<path d="M349.372 219.532C349.227 219.624 349.051 219.658 348.882 219.624C348.713 219.59 348.565 219.492 348.469 219.35C348.373 219.208 348.337 219.033 348.369 218.864C348.401 218.694 348.499 218.544 348.638 218.444C350.635 217.009 352.537 215.595 354.401 214.162C371.283 201.092 387.37 185.265 392.662 164.691C398.085 144.064 389.75 122.677 379.493 104.086C378.34 101.985 377.165 99.9167 375.951 97.836C375.865 97.6879 375.837 97.5115 375.876 97.3437C375.916 97.176 376.02 97.0309 376.165 96.9401C376.31 96.8493 376.486 96.8198 376.654 96.8576C376.823 96.8955 376.969 96.9979 377.064 97.1405C377.064 97.1405 377.064 97.1405 377.064 97.1405C378.408 99.1534 379.709 101.162 380.985 103.213C392.278 121.257 401.822 143.409 396.056 165.55C390.344 187.535 373.085 203.348 355.416 215.561C353.458 216.9 351.463 218.21 349.372 219.532Z" fill="#FAF8F2"/>
<path d="M240.914 179.048C241.005 179.084 241.107 179.085 241.199 179.048C241.29 179.012 241.364 178.941 241.403 178.851C241.442 178.761 241.443 178.659 241.408 178.567C241.372 178.475 241.302 178.401 241.213 178.36C241.213 178.36 241.213 178.36 241.213 178.36C239.833 177.715 238.525 177.009 237.239 176.218C225.587 169.106 218.868 156.111 216.74 142.915C214.614 129.665 216.367 115.53 222.964 103.662C223.702 102.353 224.508 101.073 225.374 99.8468C225.43 99.7667 225.455 99.6675 225.44 99.57C225.426 99.4725 225.373 99.3848 225.295 99.326C225.216 99.2673 225.118 99.242 225.02 99.2556C224.922 99.2691 224.834 99.3206 224.773 99.3975C223.824 100.596 222.935 101.857 222.116 103.155C214.771 114.944 212.56 129.557 214.767 143.24C216.93 156.862 224.394 170.376 236.742 177.071C238.1 177.818 239.474 178.468 240.914 179.048Z" fill="#FAF8F2"/>
<path d="M243.679 124.38C243.657 124.475 243.67 124.575 243.718 124.66C243.765 124.746 243.844 124.809 243.937 124.836C244.03 124.863 244.13 124.852 244.216 124.806C244.302 124.76 244.367 124.683 244.399 124.591C244.399 124.591 244.399 124.591 244.399 124.591C244.656 123.861 244.907 123.178 245.174 122.469C247.568 116.266 250.484 109.759 255.989 106.415C261.519 103.081 268.612 103.684 275.224 104.531C275.984 104.634 276.698 104.737 277.462 104.855C277.558 104.87 277.657 104.85 277.738 104.795C277.819 104.741 277.876 104.658 277.896 104.563C277.916 104.469 277.898 104.37 277.845 104.287C277.793 104.205 277.71 104.146 277.617 104.121C277.617 104.121 277.617 104.121 277.617 104.121C276.865 103.92 276.16 103.739 275.405 103.56C268.882 102.073 261.375 100.904 254.956 104.702C248.641 108.607 246.026 115.722 244.234 122.167C244.036 122.907 243.858 123.621 243.679 124.38Z" fill="#FAF8F2"/>
<path d="M341.11 120.016C341.142 120.107 341.141 120.208 341.104 120.298C341.066 120.388 340.995 120.46 340.906 120.498C340.817 120.535 340.717 120.536 340.626 120.5C340.535 120.464 340.462 120.395 340.419 120.308C340.419 120.308 340.419 120.308 340.419 120.308C340.098 119.654 339.788 119.049 339.453 118.412C336.515 112.862 332.769 107.337 327.071 105.211C321.395 103.072 314.878 104.345 308.79 105.936C308.095 106.123 307.437 106.305 306.738 106.509C306.645 106.536 306.544 106.529 306.457 106.486C306.369 106.443 306.302 106.368 306.27 106.277C306.237 106.186 306.242 106.085 306.283 105.997C306.325 105.908 306.398 105.839 306.488 105.802C306.488 105.802 306.488 105.802 306.488 105.802C307.164 105.518 307.804 105.258 308.484 104.997C314.42 102.769 321.25 100.929 327.782 103.342C334.342 105.835 337.993 112.13 340.35 117.998C340.622 118.678 340.862 119.323 341.11 120.016Z" fill="#FAF8F2"/>
<path d="M183.727 242.828C183.786 244.066 183.84 245.286 183.891 246.487C184.363 257.449 184.736 268.287 184.587 279.066C184.322 289.825 184.068 300.713 180.712 311.029C180.308 312.152 179.835 313.276 179.227 314.328C180.051 313.433 180.764 312.404 181.398 311.356C186.895 301.575 188.333 290.123 188.587 279.125C188.74 268.061 187.258 257.061 184.643 246.379C184.355 245.209 184.049 244.025 183.727 242.828Z" fill="#FAF8F2"/>
<path d="M140.29 304.788C144.912 307.012 149.521 309.28 154.056 311.66C180.484 323.886 198.211 346.411 215.144 369.487L215.157 369.504C226.624 383.67 239.93 394.826 252.678 406.727C262.024 415.507 272.509 424.3 279.228 433.74C280.836 436.377 281.958 438.64 282.281 441.32C282.477 444.346 283.764 448.881 285.526 451.777C293.754 465.696 303.048 479.323 307.999 493.584C310.188 503.71 312.007 514.137 312.296 524.554C312.231 529.509 312.532 535.153 309.022 539.025C312.986 535.482 313.286 529.615 313.815 524.598C314.513 513.962 313.554 503.339 312.065 492.809C307.652 476.284 299.039 462.56 291.57 448.577C290.166 445.776 289.653 443.91 289.421 440.445C289.107 436.599 287.387 432.864 285.655 429.907C277.508 417.898 267.628 409.9 258.088 400.834C245.356 388.981 231.623 377.705 220.727 365.143L220.74 365.159C203.21 342.799 182.31 319.899 154.699 310.282C149.934 308.325 145.118 306.52 140.29 304.788Z" fill="#FAF8F2"/>
<path d="M191.214 500.152C190.189 499.436 189.181 498.614 188.236 497.774C179.884 489.988 173.066 480.767 165.436 472.193C157.851 463.608 149.975 454.974 140.485 448.244C139.41 447.499 138.319 446.801 137.227 446.18C138.164 447.017 139.087 447.907 139.996 448.826C147.935 457.073 154.813 466.212 162.425 474.827C170.036 483.381 177.89 492.139 187.787 498.387C188.892 499.048 190.06 499.669 191.214 500.152Z" fill="#FAF8F2"/>
<path d="M158.749 558.668C158.544 558.063 158.357 557.468 158.187 556.881C156.6 551.49 156.2 545.959 157.16 540.624C158.117 535.309 160.278 530.131 163.533 525.612C163.909 525.11 164.298 524.613 164.727 524.18C164.213 524.511 163.723 524.927 163.251 525.358C159.112 529.229 156.207 534.57 155.191 540.275C154.147 545.999 155.212 551.995 157.834 557.022C158.118 557.57 158.423 558.119 158.749 558.668Z" fill="#FAF8F2"/>
<path d="M185.07 550.957C185.761 551.128 186.442 551.287 187.115 551.436C193.256 552.802 199.331 553.478 205.415 553.5C211.499 553.51 217.588 552.936 223.706 551.525C224.382 551.365 225.072 551.187 225.727 551C225.155 551.369 224.529 551.727 223.907 552.058C218.269 555.03 211.837 556.52 205.404 556.5C198.967 556.485 192.562 554.889 186.921 551.972C186.302 551.652 185.686 551.314 185.07 550.957Z" fill="#FAF8F2"/>
<path d="M183.437 565.543C184.097 565.654 184.745 565.756 185.381 565.849C191.197 566.717 196.895 567.137 202.546 566.876C208.189 566.617 213.787 565.655 219.36 563.784C219.98 563.583 220.61 563.356 221.227 563.18C220.697 563.536 220.158 563.93 219.612 564.296C214.709 567.661 208.714 569.612 202.685 569.872C196.637 570.158 190.618 568.835 185.22 566.396C184.629 566.128 184.035 565.844 183.437 565.543Z" fill="#FAF8F2"/>
<path d="M282.532 458.808C282.103 459.581 281.666 460.312 281.208 461.033C277.08 467.598 271.246 472.553 264.522 475.75C257.796 478.924 250.315 480.79 242.611 480.942C241.776 480.935 240.88 480.907 240.062 480.723C240.818 481.098 241.715 481.321 242.549 481.508C250.296 482.998 258.553 481.897 265.821 478.454C273.107 475.036 279.038 468.685 281.718 461.287C282.021 460.474 282.288 459.658 282.532 458.808Z" fill="#FAF8F2"/>
<path d="M584.492 518.523C583.787 519.352 583.062 520.135 582.301 520.899C575.442 527.762 566.577 531.969 557.435 534.692C548.254 537.337 538.632 538.901 528.973 538.567C527.901 538.483 526.785 538.424 525.829 538.023C526.734 538.549 527.858 538.74 528.927 538.944C538.612 540.369 548.575 539.33 558.004 536.609C567.381 533.84 576.468 528.841 582.585 521.152C583.263 520.3 583.894 519.432 584.492 518.523Z" fill="#FAF8F2"/>
<path d="M607.492 545.523C608.435 545.312 609.409 545.169 610.368 545.088C619.123 544.516 627.481 547.614 635.409 550.994C643.304 554.542 651.129 558.596 658.024 563.926C658.74 564.538 659.547 565.2 659.992 566.023C659.665 565.135 658.928 564.356 658.285 563.65C651.999 557.415 644.276 552.783 636.212 549.162C628.151 545.706 619.141 543.024 610.312 544.712C609.355 544.914 608.397 545.184 607.492 545.523Z" fill="#FAF8F2"/>
<path d="M210.181 510.19C209.079 508.366 206.977 507.404 205.131 506.438C195.822 502.115 184.718 500.721 174.432 504.261L174.369 504.287C166.077 507.526 158.163 511.803 151.262 517.68C135.937 528.814 127.972 556.507 145.568 568.748C147.284 570.045 149.096 571.103 151.023 571.984C149.258 570.812 147.658 569.508 146.193 568.032C131.799 554 140.676 532.23 154.51 521.481C160.895 516.042 168.216 511.734 175.993 508.092L175.93 508.118C184.696 504.405 195.208 504.434 204.776 507.319C206.687 507.993 208.836 508.604 210.181 510.19Z" fill="#FAF8F2"/>
<path d="M189.539 519.508C189.402 519.326 189.275 519.15 189.153 518.976C188.027 517.437 187.06 515.665 187.489 514.734C187.819 513.716 189.62 512.814 191.414 512.213C191.622 512.143 191.823 512.075 192.039 512.008C191.823 511.941 191.616 511.883 191.396 511.833C189.558 511.457 186.868 511.388 185.612 514.045C184.827 517.005 187.238 518.528 188.917 519.274C189.118 519.357 189.324 519.434 189.539 519.508Z" fill="#FAF8F2"/>
<path d="M187.547 520.505C188.04 520.983 188.6 521.44 189.181 521.866C194.465 525.579 200.666 527.584 206.725 529.265C212.801 530.989 219.094 531.735 225.012 533.6C225.629 533.849 226.302 534.119 226.723 534.677C226.474 534.006 225.845 533.518 225.286 533.1C219.746 529.63 213.522 528.08 207.506 526.369C201.46 524.689 195.318 523.55 189.458 521.368C188.804 521.107 188.157 520.821 187.547 520.505Z" fill="#FAF8F2"/>
<path d="M226.724 534.678C226.811 535.021 226.578 535.223 226.336 535.385C226.102 535.53 225.808 535.649 225.528 535.739C220.156 536.998 214.488 536.965 209.025 537.297C203.527 537.475 198.057 537.87 192.546 536.71C191.942 536.571 191.319 536.39 190.725 536.179C191.178 536.617 191.703 537.034 192.234 537.404C197.231 540.714 203.426 541.504 209.201 541.293C214.984 540.944 220.92 539.855 225.903 536.4C226.156 536.187 226.424 535.939 226.613 535.66C226.821 535.377 226.956 534.952 226.724 534.678Z" fill="#FAF8F2"/>
<path d="M210.049 510.007C210.173 510.483 210.239 510.932 210.254 511.38C210.235 515.587 205.587 516.558 201.986 517.547C198.148 518.422 194.143 518.986 189.954 519.034C189.493 519.036 189.012 519.025 188.546 519.006C188.961 519.219 189.407 519.417 189.845 519.593C193.865 521.169 198.385 521.455 202.677 520.467C204.821 519.949 206.952 519.116 208.772 517.608C210.601 516.226 211.894 513.332 210.808 511.248C210.606 510.793 210.352 510.395 210.049 510.007Z" fill="#FAF8F2"/>
<path d="M398.969 561.168C399.175 560.563 399.362 559.968 399.532 559.381C401.119 553.99 401.519 548.459 400.558 543.124C399.602 537.809 397.441 532.631 394.186 528.112C393.81 527.61 393.42 527.113 392.992 526.68C393.506 527.011 393.996 527.427 394.468 527.858C398.607 531.729 401.512 537.07 402.528 542.775C403.572 548.499 402.507 554.495 399.884 559.522C399.601 560.07 399.296 560.619 398.969 561.168Z" fill="#FAF8F2"/>
<path d="M361.474 520.039C361.593 519.83 361.699 519.635 361.812 519.43C362.766 517.685 363.873 515.556 362.804 514.628C361.682 513.527 359.551 512.943 357.642 512.242C357.429 512.167 357.21 512.09 356.984 512.012C357.222 511.991 357.455 511.973 357.682 511.96C359.749 511.922 361.977 511.856 363.903 513.607C364.921 514.581 364.745 516.309 364.164 517.218C363.607 518.211 362.844 518.95 362.031 519.613C361.846 519.763 361.667 519.896 361.474 520.039Z" fill="#FAF8F2"/>
<path d="M361.475 520.04C358.723 521.043 355.74 521.376 352.797 521.505C348.784 521.643 344.736 521.348 340.767 520.364C338.799 519.85 336.818 519.202 335.003 517.93C334.117 517.289 333.237 516.444 332.781 515.233C332.307 514.018 332.519 512.6 333.035 511.544L332.974 511.694C337.49 503.366 346.592 502.436 354.204 500.945C362.101 499.894 370.345 500.035 378.109 502.918L377.995 502.878C380.75 503.723 383.42 504.712 386.022 505.861C410.556 515.168 430.45 548.665 411.711 571.239C409.772 573.479 407.507 575.404 405.023 576.984C407.374 575.213 409.46 573.142 411.193 570.822C427.451 547.801 407.726 518.129 384.608 509.063C382.134 507.97 379.593 507.018 376.966 506.191L376.853 506.151C363.48 501.692 344.084 501.993 334.997 512.331L334.936 512.482C333.079 515.42 337.701 517.918 341.167 518.963C344.888 520.131 348.845 520.694 352.795 520.84C355.699 520.92 358.657 520.818 361.475 520.04Z" fill="#FAF8F2"/>
<path d="M364.983 534.032C363.43 534.651 361.842 535.202 360.234 535.688C345.946 539.288 328.925 541.973 315.817 530.82C315.184 529.951 314.691 528.919 314.505 527.778L314.484 527.532C314.431 525.954 315.69 524.652 316.621 524.158C317.596 523.591 318.584 523.302 319.502 523.079C321.375 522.644 323.19 522.479 325.001 522.362C328.616 522.148 332.162 522.196 335.709 522.25C342.777 522.316 349.882 522.8 356.799 521.658C358.425 521.346 360.056 520.92 361.475 520.041C360.169 521.088 358.552 521.718 356.934 522.212C350.021 524.134 342.786 524.231 335.737 524.569C332.201 524.716 328.677 524.828 325.216 525.143C323.491 525.308 321.773 525.519 320.203 525.918C318.638 526.261 317.26 527.159 317.476 527.533L317.456 527.287C317.559 527.894 317.827 528.483 318.244 529.056C328.41 537.898 345.843 537.408 360.098 535.134C361.735 534.827 363.367 534.461 364.983 534.032Z" fill="#FAF8F2"/>
<path d="M325.48 536.033C324.402 536.604 323.455 537.173 322.519 537.822C320.519 539.181 318.383 541.345 318.882 543.089C319.324 544.811 321.619 546.111 323.807 546.989C328.354 548.744 333.332 549.468 338.366 549.992C348.387 550.954 358.672 550.778 369.005 550.159C370.143 550.09 371.297 550.012 372.468 549.924C371.347 550.274 370.235 550.602 369.131 550.908C359.103 553.667 348.497 554.983 337.972 553.973C332.673 553.413 327.431 552.41 322.46 549.88C320.124 548.548 317.206 546.933 316.72 543.355C316.733 539.617 319.934 538.185 322.153 537.156C323.241 536.697 324.304 536.356 325.48 536.033Z" fill="#FAF8F2"/>
<path d="M377.858 500.444C379.322 500.555 380.785 499.915 382.107 499.336C394.004 493.086 403.68 484.12 413.516 475.59C423.329 467.032 432.451 457.709 443.109 450.35C444.351 449.543 445.601 448.804 446.877 448.18C445.49 448.489 444.082 448.95 442.674 449.505C430.393 454.672 420.027 463.273 410.197 471.85C400.29 480.449 391.65 490.276 381.626 498.516C380.489 499.329 379.283 500.216 377.858 500.444Z" fill="#FAF8F2"/>
<path d="M233.061 556.17C237.824 553.657 240.957 548.432 241.276 542.985C242.08 525.873 230.615 510.855 228.714 495.68C229.475 487.904 222.279 481.871 216.496 479.137C210.503 475.983 204.627 473.191 199.407 469.403C185.473 459.316 170.281 450.51 154.742 443.472C153.842 443.028 152.959 442.585 152.092 442.145C132.039 432.283 114.539 418.425 101.707 399.946C100.737 398.659 100.006 397.716 99.0102 396.536C98.6462 396.108 97.9614 395.334 97.4904 394.899C97.2932 394.712 97.1032 394.545 96.9057 394.392C96.8068 394.315 96.7059 394.242 96.5987 394.172C96.5346 394.13 96.5249 394.123 96.4009 394.05C96.2856 393.983 96.1608 393.918 96.0164 393.859C95.7305 393.744 95.3486 393.624 94.8214 393.679C94.6118 393.694 94.1457 393.818 93.8314 394.046C93.5018 394.271 93.2738 394.565 93.1363 394.822C92.9992 395.072 92.9247 395.342 92.897 395.477C92.8735 395.588 92.8586 395.69 92.8487 395.787C92.8292 395.98 92.8284 396.152 92.835 396.316C93.3903 399.989 94.4985 402.098 95.3987 404.835C96.3125 407.428 97.2906 410.081 97.8106 412.549C97.9331 413.132 97.994 413.82 97.958 414.012C97.9572 414.05 97.9461 414.009 98.0606 413.852C98.1561 413.703 98.4801 413.494 98.6963 413.479C98.9263 413.457 98.9163 413.493 98.9019 413.485C98.8785 413.482 98.7912 413.454 98.673 413.394C98.369 413.259 97.7186 412.786 97.3105 412.445C97.0715 412.248 96.8112 412.022 96.5302 411.766C96.2974 411.555 96.0892 411.362 95.8513 411.134C88.1445 403.328 81.5029 394.489 74.5959 385.691L74.5474 385.631C72.1545 382.985 68.3471 382.204 65.0983 382.646C59.6571 383.363 54.8041 385.789 50.0567 388.18C54.9318 386.087 59.9626 383.974 65.1801 383.592C68.3204 383.361 71.5254 384.263 73.4518 386.625L73.4033 386.566C79.8877 395.759 85.9849 404.778 93.7251 413.265C93.9711 413.52 94.1876 413.74 94.4355 413.984C94.7369 414.278 95.0226 414.546 95.295 414.789C95.7595 415.209 96.5279 415.836 97.1846 416.194C97.4388 416.332 97.7128 416.457 98.001 416.546C98.146 416.59 98.2972 416.626 98.4575 416.65C98.4982 416.656 98.5362 416.66 98.5812 416.665C98.6451 416.671 98.7103 416.675 98.7769 416.677C98.91 416.68 99.0487 416.672 99.1907 416.651C100.486 416.494 101.082 415.164 101.144 414.645C101.345 413.483 101.189 412.75 101.085 411.972C100.562 408.991 99.6574 406.348 98.8209 403.677C98.0216 401.108 96.9241 398.085 96.7061 396.186C96.7064 396.162 96.7101 396.163 96.7069 396.207C96.7051 396.229 96.7013 396.262 96.6919 396.308C96.6808 396.362 96.6464 396.506 96.5531 396.679C96.4608 396.852 96.2885 397.082 96.0256 397.261C95.7746 397.444 95.4029 397.541 95.2474 397.552C94.8488 397.592 94.6206 397.502 94.5153 397.462C94.4041 397.415 94.4141 397.413 94.4184 397.419C94.4251 397.425 94.4452 397.441 94.4749 397.466C94.5347 397.517 94.6318 397.604 94.7537 397.726C95.0353 398.004 95.6219 398.686 95.9349 399.084C96.8064 400.174 97.4862 401.108 98.3956 402.375C110.793 421.406 129.431 436.659 149.826 446.602C150.712 447.052 151.615 447.504 152.534 447.956C168.209 455.049 182.807 463.313 196.87 473.025C207.235 481.357 225.399 482.48 225.454 495.68C228.43 513.169 240.183 526.187 240.328 542.928C240.306 548.149 237.666 553.337 233.061 556.17Z" fill="#FAF8F2"/>
<path d="M448.5 425.024C452.168 423.798 455.85 422.807 459.589 422.021C491.846 414.932 534.14 425.249 541.635 457.443C547.074 489.551 520.436 519.143 496.933 542.587C494.259 545.192 491.447 547.838 488.492 550.525C491.779 548.256 494.921 545.995 497.921 543.742C523.95 523.265 555.241 495.141 549.456 455.763C539.096 415.676 490.359 409.328 459.184 420.556C455.514 421.82 451.965 423.305 448.5 425.024Z" fill="#FAF8F2"/>
<path d="M219.227 303.68C220.962 305.605 222.941 307.317 225.088 308.807C244.228 321.27 268.533 318.492 289.727 317.675C291.039 317.678 292.314 317.698 293.593 317.737C306.175 317.749 319.012 322.305 332.307 320.676L332.376 320.671C342.675 319.294 353.289 317.007 361.851 310.808C363.952 309.229 365.833 307.368 367.227 305.18C365.615 307.212 363.603 308.836 361.423 310.18C352.581 315.405 342.215 316.856 332.077 317.688L332.146 317.683C319.347 318.624 307.108 313.825 293.715 313.739C292.393 313.699 291.077 313.681 289.727 313.685C267.767 314.619 245.21 318.484 225.493 308.164C223.262 306.904 221.151 305.416 219.227 303.68Z" fill="#FAF8F2"/>
<path d="M448.872 412.184C448.572 409.206 448.288 406.244 448.001 403.284C446.9 390.793 445.169 378.755 441.575 367.043C438.138 353.486 430.076 343.011 421.936 330.904C419.508 327.25 417.184 323.584 414.92 319.801C406.764 306.122 399.928 288.307 406.429 271.929C408.244 266.426 409.096 259.443 410.113 253.026C410.55 250.086 410.966 247.138 411.371 244.179C411.566 247.159 411.719 250.138 411.82 253.122C411.945 259.83 412.369 266.132 411.055 273.427C407.475 287.918 414.399 302.477 422.412 315.168C424.73 318.797 427.047 322.335 429.433 325.925C437.143 337.318 446.147 350.642 448.308 365.433C450.858 377.915 450.886 390.875 449.711 403.274C449.458 406.245 449.172 409.206 448.872 412.184Z" fill="#FAF8F2"/>
<path d="M248.658 182.346C253.24 169.118 274.236 138.977 295.193 146.909C310.566 137.382 342.694 175.994 343.781 189.213C350.412 269.842 226.685 245.775 248.658 182.346Z" fill="#FAF8F2" stroke="#FAF8F2" stroke-width="2"/>
<path d="M303.375 128.008C309.875 117.504 323.875 118.004 328.375 128.008C324.375 136.504 310.875 139.004 303.375 128.008Z" fill="#FAF8F2" stroke="#FAF8F2" stroke-width="0.5"/>
<path d="M297.841 164.596C296.371 160.601 306.925 154.765 309.795 158.001C312.102 160.602 298.933 168.164 297.841 164.596Z" fill="#AFBF41" stroke="#AFBF41"/>
<path d="M289.273 164.092C290.683 160.028 280.076 154.241 277.26 157.553C274.996 160.214 288.235 167.72 289.273 164.092Z" fill="#AFBF41" stroke="#AFBF41"/>
<circle cx="317.875" cy="128.004" r="5" fill="#AFBF41"/>
<path d="M282.016 127.68C275.516 117.176 261.516 117.676 257.016 127.68C261.016 136.176 274.516 138.676 282.016 127.68Z" fill="#FAF8F2" stroke="#FAF8F2" stroke-width="0.5"/>
<circle cx="5" cy="5" r="5" transform="matrix(-1 0 0 1 275.016 122.988)" fill="#AFBF41"/>
<path d="M302.031 533.484C304.031 541.984 312.031 546.985 313.031 528.984C313.031 531.484 316.131 534.484 306.531 558.484H296.531C297.031 556.984 301.031 545.484 302.031 533.484Z" fill="#AFBF41" stroke="#AFBF41" stroke-width="0.25" stroke-miterlimit="1.74345" stroke-linecap="round"/>
<path d="M368.078 98.0211C314.547 34.4842 250.547 52.9842 216.828 110.536C243.812 35.0433 323.547 28.9818 368.078 98.0211Z" fill="#FAF8F2" stroke="#FAF8F2" stroke-width="2" stroke-linecap="round"/>
<path d="M329.029 194.483C313.531 212.48 273.031 206.98 260.531 195.484C283.531 207.98 310.031 209.48 329.029 194.483Z" fill="#AFBF41"/>
<path d="M329.029 194.483L329.218 194.646C329.303 194.549 329.299 194.403 329.21 194.31C329.12 194.217 328.975 194.207 328.874 194.287L329.029 194.483ZM260.531 195.484L260.65 195.264L260.362 195.668L260.531 195.484ZM329.029 194.483L328.84 194.32C321.166 203.231 307.265 206.355 293.666 205.794C286.875 205.514 280.179 204.314 274.404 202.47C268.625 200.625 263.788 198.14 260.7 195.3L260.531 195.484L260.362 195.668C263.524 198.576 268.437 201.09 274.252 202.947C280.071 204.805 286.812 206.011 293.646 206.294C307.297 206.857 321.394 203.732 329.218 194.646L329.029 194.483ZM329.029 194.483L328.874 194.287C309.981 209.201 283.597 207.731 260.65 195.264L260.531 195.484L260.412 195.704C283.466 208.229 310.081 209.759 329.184 194.68L329.029 194.483Z" fill="#AFBF41"/>
<path d="M289.841 41.1611C290.383 43.1305 290.491 44.7363 290.349 46.0449C292.241 44.9249 294.79 43.7662 298.056 42.8018L299.752 42.3008L298.568 43.6152C297.903 44.3544 297.288 44.9764 296.745 45.4893C298.611 44.7668 301.526 43.7291 305.791 42.5049L307.424 42.0361L306.306 43.3145C305.397 44.3526 304.176 45.3558 303.151 46.1641C302.76 46.4728 302.404 46.7521 302.095 46.9971C302.17 46.9753 302.25 46.9535 302.333 46.9287C303.857 46.4734 306.503 45.5537 310.76 44.0156L311.43 43.7734L311.429 44.4854C311.429 45.111 311.413 45.6764 311.408 46.1338C311.403 46.6051 311.411 46.9697 311.448 47.2549C311.486 47.5431 311.55 47.6918 311.612 47.7715C311.661 47.8332 311.742 47.8968 311.943 47.9287C312.162 47.9633 312.487 47.9537 312.971 47.874C313.448 47.7952 314.048 47.6545 314.804 47.4492C316.317 47.038 318.397 46.3849 321.278 45.5078L322.499 45.1367L321.855 46.2383C320.77 48.0964 319.992 49.2947 319.576 50.1055C319.389 50.4717 319.32 50.6834 319.305 50.7949C319.44 50.8358 319.708 50.8581 320.19 50.8311C320.671 50.8041 321.296 50.7353 322.095 50.6426C323.685 50.458 325.914 50.1836 328.891 49.9873L330.79 49.8623L329.198 50.9053C327.84 51.7942 326.631 52.6469 325.799 53.3584C325.381 53.7161 325.08 54.0206 324.902 54.2607C324.841 54.3432 324.804 54.4108 324.78 54.46C324.832 54.4752 324.908 54.493 325.015 54.5039C325.358 54.539 325.899 54.5121 326.691 54.3926C328.268 54.1547 330.713 53.5661 334.282 52.5068L335.413 52.1719L334.868 53.2178C333.993 54.8964 333.341 56.2065 332.884 57.2422C334.061 57.2908 335.361 57.4174 336.779 57.6455L338.525 57.9268L336.89 58.6016C336.27 58.8573 335.702 59.0679 335.192 59.2402C336.875 59.3816 339.351 59.6579 342.762 60.2334L344.437 60.5156L342.876 61.1855C341.801 61.6468 340.502 61.9658 339.43 62.207C339.18 62.2632 338.945 62.318 338.727 62.3662C340.078 62.5693 342.372 62.824 345.979 63.1855L346.688 63.2568L346.38 63.9004C346.152 64.3755 345.934 64.801 345.765 65.1445C345.589 65.5008 345.464 65.7755 345.391 66C345.317 66.2267 345.316 66.3461 345.33 66.4092C345.339 66.4502 345.364 66.5134 345.493 66.6025C345.636 66.701 345.877 66.8086 346.27 66.9229C346.657 67.0356 347.161 67.146 347.809 67.2646C349.105 67.5023 350.92 67.7635 353.428 68.1455L354.689 68.3379L353.633 69.0537C352.128 70.0735 351.107 70.6952 350.499 71.1582C350.287 71.3199 350.169 71.4349 350.105 71.5078C350.203 71.5764 350.381 71.672 350.685 71.7969C351.057 71.9502 351.554 72.1246 352.194 72.3447C353.469 72.7828 355.263 73.3858 357.598 74.3203L359.364 75.0273L357.478 75.2793C356.124 75.4604 354.9 75.6688 354.015 75.9053C353.569 76.0243 353.236 76.1432 353.021 76.2568C352.996 76.2704 352.975 76.2868 352.955 76.2988C352.975 76.3126 352.997 76.3287 353.023 76.3447C353.263 76.4909 353.675 76.6666 354.318 76.8633C355.596 77.2541 357.662 77.6959 360.757 78.1895L361.923 78.375L360.979 79.083C358.777 80.7345 357.333 81.5984 356.464 82.0869C356.289 82.1852 356.145 82.2647 356.025 82.3301C356.249 82.4765 356.528 82.6751 356.843 82.958C357.6 83.6385 358.541 84.7751 359.487 86.7676C359.766 87.3538 359.963 87.7939 360.078 88.0938C360.133 88.2382 360.18 88.3783 360.202 88.4951C360.212 88.5459 360.227 88.6465 360.207 88.7568C360.196 88.8161 360.169 88.912 360.094 89.0039C360.009 89.1075 359.89 89.1716 359.764 89.1904C359.563 89.2202 359.411 89.1271 359.376 89.1055C359.315 89.0679 359.261 89.0225 359.219 88.9844C359.133 88.9059 359.035 88.7995 358.932 88.6797C358.722 88.4362 358.442 88.0825 358.106 87.6445C356.755 85.8819 354.382 82.6284 351.334 78.9092C348.287 75.1917 344.58 71.0271 340.584 67.4648C340.391 67.2927 340.196 67.1232 340.002 66.9541C339.758 66.8199 339.489 66.6708 339.197 66.5078C336.673 65.0974 332.367 62.6291 327.157 59.9766C326.912 60.0217 326.689 60.0564 326.486 60.0762C325.992 60.1244 325.556 60.1087 325.249 59.9814C325.092 59.9162 324.889 59.787 324.799 59.542C324.704 59.2841 324.786 59.0483 324.883 58.8955C324.892 58.8808 324.903 58.867 324.913 58.8525C319.626 56.2442 313.615 53.5833 307.692 51.6826C301.301 49.6317 295.068 48.4821 289.974 49.1816C289.357 49.7175 288.814 50.123 288.353 50.417C288.34 50.4295 288.329 50.4429 288.317 50.4551C288.543 50.4475 288.815 50.4387 289.143 50.4277C291.013 50.3649 294.448 50.2819 300.382 50.5391C301.149 50.5723 301.689 50.5991 302.017 50.6221C302.172 50.633 302.306 50.6445 302.393 50.6602C302.415 50.6642 302.452 50.6717 302.491 50.6846C302.51 50.6909 302.546 50.7035 302.586 50.7256C302.614 50.7408 302.714 50.7972 302.783 50.9189C302.812 50.979 302.848 51.117 302.85 51.1934C302.84 51.2672 302.796 51.3949 302.765 51.4482C302.694 51.5536 302.603 51.6023 302.577 51.6162C302.512 51.6503 302.452 51.6649 302.435 51.6689C302.349 51.689 302.219 51.7018 302.093 51.7119C301.951 51.7233 301.765 51.735 301.542 51.748C301.095 51.774 300.479 51.8046 299.722 51.8447C296.687 52.0056 291.329 52.315 285.092 53.041C278.852 53.7673 271.745 54.9093 265.212 56.7334C258.727 58.5441 252.863 61.0145 248.965 64.3721C248.713 65.245 248.453 65.9353 248.201 66.4541C248.007 66.8543 247.799 67.1884 247.58 67.4219C247.596 67.4504 247.611 67.4778 247.626 67.5039C247.813 67.8319 247.926 67.9677 248.039 68.0371C248.134 68.0951 248.3 68.1478 248.697 68.0967C249.1 68.0447 249.668 67.8962 250.512 67.626C252.203 67.0845 254.834 66.1131 259.178 64.6387C259.756 64.4424 260.192 64.3155 260.468 64.2793C260.539 64.2699 260.623 64.2642 260.708 64.2715C260.773 64.2771 260.944 64.2971 261.084 64.4336C261.272 64.6164 261.265 64.8511 261.224 64.9893C261.189 65.1052 261.123 65.1931 261.083 65.2422C260.996 65.3487 260.873 65.4588 260.743 65.5635C260.606 65.6738 260.436 65.8012 260.238 65.9404C259.843 66.219 259.319 66.564 258.69 66.9688C256.169 68.5934 251.91 71.2053 247.188 74.4297C242.468 77.653 237.309 81.4743 233.012 85.4941C228.701 89.526 225.315 93.707 224.06 97.6436L224.046 97.6875L224.023 97.7285C223.516 98.6698 223.085 99.4177 222.723 99.9814C222.368 100.533 222.054 100.949 221.775 101.188C221.642 101.303 221.455 101.433 221.227 101.46C220.939 101.494 220.706 101.357 220.565 101.161C220.448 100.998 220.394 100.797 220.363 100.622C220.331 100.436 220.316 100.22 220.312 99.9824C220.3 99.0432 220.472 97.5299 220.74 95.5957C221.01 93.6524 221.385 91.2351 221.788 88.4785L222.057 86.6445L222.746 88.3643C223.224 89.5552 223.571 90.5731 223.828 91.3799C223.847 91.1647 223.864 90.9318 223.887 90.6836C224.042 89.0204 224.308 86.6064 224.816 83.3252L225.054 81.791L225.756 83.1758C226.27 84.189 226.718 85.388 227.099 86.3164C227.293 86.7905 227.467 87.1894 227.627 87.4824C227.673 87.5673 227.717 87.6379 227.756 87.6963C227.86 87.4622 227.982 87.0643 228.108 86.4375C228.396 85.0112 228.684 82.5883 228.994 78.7617L229.064 77.8994L229.776 78.3906C230.647 78.9903 231.275 79.5489 231.726 80.0205C231.717 78.5934 231.909 76.1874 232.83 72.4395L233.117 71.2715L233.742 72.2979C234.283 73.1853 234.716 73.8747 235.067 74.3896C235.411 74.8941 235.656 75.1953 235.828 75.3525C235.861 75.2774 235.896 75.1775 235.935 75.0479C236.324 73.7263 236.718 70.1451 238.57 65.7891L239.259 64.1729L239.524 65.9092C239.743 67.3359 240.066 68.4805 240.41 69.2256C240.584 69.6022 240.749 69.8417 240.882 69.9688C240.937 70.0216 240.972 70.0426 240.991 70.0508C241.021 70.0312 241.107 69.96 241.223 69.7314C241.364 69.4519 241.507 69.0161 241.633 68.3887C241.883 67.1376 242.048 65.2177 242.048 62.4824L242.047 61.4893L242.846 62.0811C244.46 63.2795 245.489 64.3371 246.191 65.2314C246.691 62.9674 248.406 59.1423 252.284 54.624L253.436 53.2822L253.157 55.0293C252.924 56.4878 252.647 57.686 252.414 58.5957C252.654 58.2812 252.931 57.9176 253.249 57.5088C254.46 55.9527 256.26 53.7071 258.874 50.708L259.825 49.6162L259.75 51.0625C259.689 52.2339 259.439 53.5632 259.283 54.5957C259.203 55.1257 259.149 55.5711 259.145 55.9062C259.143 56.0172 259.149 56.1061 259.157 56.1758C259.186 56.1604 259.22 56.1442 259.258 56.1201C259.548 55.9346 259.978 55.5568 260.591 54.9082C261.808 53.62 263.649 51.3683 266.385 47.7676L266.809 47.208L267.198 47.793C267.867 48.7968 268.229 49.6452 268.429 50.3076C269.23 48.9714 270.932 46.613 274.59 43.0215L275.389 42.2373L275.439 43.3555C275.537 45.4921 275.443 46.9777 275.396 47.875C275.393 47.9382 275.393 47.9976 275.391 48.0527C275.414 48.03 275.439 48.0069 275.464 47.9824C275.774 47.6789 276.2 47.2489 276.751 46.7236C277.86 45.6673 279.495 44.2045 281.895 42.417L283.421 41.2803L282.651 43.0205C281.998 44.4972 281.525 45.8165 281.326 46.7861C281.226 47.2758 281.205 47.6344 281.239 47.8652C281.256 47.9777 281.283 48.0337 281.297 48.0547C281.301 48.0601 281.303 48.0628 281.304 48.0635C281.302 48.0618 281.301 48.0615 281.304 48.0625C281.334 48.0717 281.503 48.0884 281.906 47.8809C282.29 47.6833 282.8 47.3275 283.452 46.7695C284.755 45.6554 286.561 43.7946 288.979 40.9688L289.591 40.2539L289.841 41.1611Z" fill="#FAF8F2"/>
<path d="M213.025 105.984C214.229 106.134 237.526 81.9868 252.026 73.9868C251.483 74.986 221.528 100.986 217.028 112.486C216.695 112.652 213.942 106.798 213.025 105.984Z" fill="#AFBF41" stroke="#AFBF41" stroke-miterlimit="1.74345" stroke-linecap="round"/>
<path d="M371.03 93.4803C364.102 90.5145 320.91 61.5754 337.875 73.6025C337.068 73.388 357.179 92.6243 365.948 101.335C366.297 101.467 370.201 94.3829 371.03 93.4803Z" fill="#AFBF41"/>
<path d="M338.411 73.9822C320.027 60.9842 364.031 90.4844 371.03 93.4803C370.201 94.3829 366.297 101.467 365.948 101.335C356.53 91.9793 334.028 70.4819 338.411 73.9822Z" stroke="#AFBF41" stroke-miterlimit="1.74345" stroke-linecap="round"/>
<path d="M347.939 175.895C347.851 175.939 347.749 175.948 347.655 175.919C347.561 175.89 347.482 175.825 347.436 175.738C347.39 175.651 347.38 175.55 347.409 175.455C347.437 175.361 347.502 175.281 347.587 175.233C347.587 175.233 347.587 175.233 347.587 175.233C349.019 174.425 350.334 173.627 351.689 172.746C363.755 165.121 373.08 152.812 374.723 138.643C376.538 124.556 372.121 110.137 364.665 97.9708C363.829 96.6151 362.945 95.2786 362.029 93.9838C361.972 93.9037 361.947 93.8044 361.962 93.7069C361.976 93.6093 362.028 93.5216 362.107 93.4628C362.186 93.404 362.284 93.3787 362.382 93.3923C362.48 93.4059 362.568 93.4574 362.629 93.5345C362.629 93.5345 362.629 93.5345 362.629 93.5345C363.623 94.7928 364.583 96.0999 365.493 97.4329C373.616 109.384 378.6 124.173 376.706 138.904C375.007 153.746 364.782 166.486 352.208 173.586C350.794 174.416 349.424 175.153 347.939 175.895Z" fill="#FAF8F2"/>
<path d="M372.497 564.023C371.558 564.061 370.629 564.087 369.701 564.102C361.339 564.227 353.191 563.593 345.204 562.212C337.695 560.522 327.857 559.604 324.521 552.61C324.377 551.777 324.557 550.87 324.997 550.023C324.345 550.711 323.856 551.599 323.761 552.626C323.859 557.588 328.611 560.238 332.236 562.223C336.116 564.179 340.31 565.408 344.513 566.152C352.961 567.62 361.673 567.137 369.812 564.854C370.714 564.6 371.607 564.323 372.497 564.023Z" fill="#FAF8F2"/>
<path d="M298.086 502.047C302.086 513.047 301.591 535.547 306.086 538.547C312.086 542.551 313.041 530.972 312.562 508.52M255.102 518.065C260.594 536.553 259.086 561.555 231.107 569.073C223.586 565.055 237.099 553.072 235.098 555.07" stroke="#FAF8F2" stroke-width="1.5" stroke-linecap="round"/>
<path d="M286.305 513.065C297.101 546.731 275.587 572.683 289.07 567.219C301.578 557.551 303.914 529.163 298.078 502.047M286.3 513.064C297.368 546.736 275.586 573.051 289.07 567.223" stroke="#FAF8F2" stroke-width="1.5" stroke-linecap="round"/>
<path d="M271.585 515.054C283.585 549.054 258.078 575.054 271.023 572.453C286.079 566.049 293.079 531.056 286.087 513.059M271.593 515.055C283.593 549.055 259.131 573.713 269.078 572.616" stroke="#FAF8F2" stroke-width="1.5" stroke-linecap="round"/>
<path d="M249.115 574.24C241.264 571.608 268.071 552.39 255.094 518.06C268.071 552.39 241.26 571.611 249.115 574.24ZM249.115 574.24C263.207 577.14 277.686 542.256 271.586 515.051" stroke="#FAF8F2" stroke-width="1.5" stroke-linecap="round"/>
</g>
<defs>
<clipPath id="clip0_971_105">
<rect width="700" height="590" fill="white"/>
</clipPath>
</defs>
</svg>
